<svg xmlns="http://www.w3.org/2000/svg" width="512" height="512" viewBox="0 0 512 512" version="1.1" xml:space="preserve" style="fill-rule:evenodd;clip-rule:evenodd;stroke-linejoin:round;stroke-miterlimit:2;"><g transform="matrix(0.91464078 0 0 0.91464078 21.85196117 21.85196117)"><rect fill="#000" x="0" y="0" width="512" height="512" style="stroke:#949699;stroke-width:3px;" /><path d="M376,257.2c-0.074,8.479 -1.046,16.926 -2.9,25.2" style="fill:none;fill-rule:nonzero;stroke:#ff5a00;stroke-opacity:0.9;stroke-width:12px;stroke-linecap:round;stroke-linejoin:miter;stroke-miterlimit:4;" /><path d="M368.3,298.3c-2.727,7.212 -6.143,14.144 -10.2,20.7" style="fill:none;fill-rule:nonzero;stroke:#ff5a00;stroke-opacity:0.9;stroke-width:12px;stroke-linecap:round;stroke-linejoin:miter;stroke-miterlimit:4;" /><path d="M344.5,337.1c-6.685,7.268 -14.243,13.683 -22.5,19.1" style="fill:none;fill-rule:nonzero;stroke:#ff5a00;stroke-opacity:0.9;stroke-width:12px;stroke-linecap:round;stroke-linejoin:miter;stroke-miterlimit:4;" /><path d="M313.8,361.2c-6.638,3.615 -13.602,6.595 -20.8,8.9" style="fill:none;fill-rule:nonzero;stroke:#ff5a00;stroke-opacity:0.9;stroke-width:12px;stroke-linecap:round;stroke-linejoin:miter;stroke-miterlimit:4;" /><path d="M276.5,374.2c-8.021,1.389 -16.163,1.959 -24.3,1.7" style="fill:none;fill-rule:nonzero;stroke:#ff5a00;stroke-opacity:0.9;stroke-width:12px;stroke-linecap:round;stroke-linejoin:miter;stroke-miterlimit:4;" /><path d="M239.3,374.8c-10.207,-1.414 -20.189,-4.136 -29.7,-8.1" style="fill:none;fill-rule:nonzero;stroke:#ff5a00;stroke-opacity:0.9;stroke-width:12px;stroke-linecap:round;stroke-linejoin:miter;stroke-miterlimit:4;" /><path d="M188.9,355.5c-5.924,-3.997 -11.48,-8.515 -16.6,-13.5" style="fill:none;fill-rule:nonzero;stroke:#ff5a00;stroke-opacity:0.9;stroke-width:12px;stroke-linecap:round;stroke-linejoin:miter;stroke-miterlimit:4;" /><path d="M160.3,328.4c-5.471,-7.252 -10.101,-15.103 -13.8,-23.4" style="fill:none;fill-rule:nonzero;stroke:#ff5a00;stroke-opacity:0.9;stroke-width:12px;stroke-linecap:round;stroke-linejoin:miter;stroke-miterlimit:4;" /><path d="M143.9,298.9c-2.824,-7.442 -4.901,-15.147 -6.2,-23" style="fill:none;fill-rule:nonzero;stroke:#ff5a00;stroke-opacity:0.9;stroke-width:12px;stroke-linecap:round;stroke-linejoin:miter;stroke-miterlimit:4;" /><path d="M136,253.1c0.216,-8.597 1.356,-17.146 3.4,-25.5" style="fill:none;fill-rule:nonzero;stroke:#ff5a00;stroke-opacity:0.9;stroke-width:12px;stroke-linecap:round;stroke-linejoin:miter;stroke-miterlimit:4;" /><path d="M144.3,212c3.435,-8.651 7.865,-16.873 13.2,-24.5" style="fill:none;fill-rule:nonzero;stroke:#ff5a00;stroke-opacity:0.9;stroke-width:12px;stroke-linecap:round;stroke-linejoin:miter;stroke-miterlimit:4;" /><path d="M160.2,183.7c5.837,-7.718 12.586,-14.702 20.1,-20.8" style="fill:none;fill-rule:nonzero;stroke:#ff5a00;stroke-opacity:0.9;stroke-width:12px;stroke-linecap:round;stroke-linejoin:miter;stroke-miterlimit:4;" /><path d="M203.1,148.3c9.325,-4.593 19.208,-7.954 29.4,-10" style="fill:none;fill-rule:nonzero;stroke:#ff5a00;stroke-opacity:0.9;stroke-width:12px;stroke-linecap:round;stroke-linejoin:miter;stroke-miterlimit:4;" /><path d="M237,137.5c7.074,-1.138 14.236,-1.64 21.4,-1.5" style="fill:none;fill-rule:nonzero;stroke:#ff5a00;stroke-opacity:0.9;stroke-width:12px;stroke-linecap:round;stroke-linejoin:miter;stroke-miterlimit:4;" /><path d="M268.6,136.7c7.421,0.783 14.753,2.256 21.9,4.4" style="fill:none;fill-rule:nonzero;stroke:#ff5a00;stroke-opacity:0.9;stroke-width:12px;stroke-linecap:round;stroke-linejoin:miter;stroke-miterlimit:4;" /><path d="M322.3,156c6.693,4.432 12.924,9.524 18.6,15.2" style="fill:none;fill-rule:nonzero;stroke:#ff5a00;stroke-opacity:0.9;stroke-width:12px;stroke-linecap:round;stroke-linejoin:miter;stroke-miterlimit:4;" /><path d="M346.5,177.2c6.635,7.626 12.279,16.059 16.8,25.1" style="fill:none;fill-rule:nonzero;stroke:#ff5a00;stroke-opacity:0.9;stroke-width:12px;stroke-linecap:round;stroke-linejoin:miter;stroke-miterlimit:4;" /><path d="M367.7,212c3.253,8.316 5.567,16.97 6.9,25.8" style="fill:none;fill-rule:nonzero;stroke:#ff5a00;stroke-opacity:0.9;stroke-width:12px;stroke-linecap:round;stroke-linejoin:miter;stroke-miterlimit:4;" /><path d="M399.005,254.13l99.01,-1.327" style="fill:none;fill-rule:nonzero;stroke:#f30;stroke-width:15.4px;stroke-linecap:round;stroke-linejoin:miter;stroke-miterlimit:4;" /><path d="M385.849,315.993l89.901,41.503" style="fill:none;fill-rule:nonzero;stroke:#f30;stroke-width:15.4px;stroke-linecap:round;stroke-linejoin:miter;stroke-miterlimit:4;" /><path d="M325.3,381.158l47.983,86.616" style="fill:none;fill-rule:nonzero;stroke:#f30;stroke-width:15.4px;stroke-linecap:round;stroke-linejoin:miter;stroke-miterlimit:4;" /><path d="M245.693,398.702l-7.129,98.762" style="fill:none;fill-rule:nonzero;stroke:#f30;stroke-width:15.4px;stroke-linecap:round;stroke-linejoin:miter;stroke-miterlimit:4;" /><path d="M193.568,384.732l-43.216,89.091" style="fill:none;fill-rule:nonzero;stroke:#f30;stroke-width:15.4px;stroke-linecap:round;stroke-linejoin:miter;stroke-miterlimit:4;" /><path d="M136.459,334.589l-82.753,54.375" style="fill:none;fill-rule:nonzero;stroke:#f30;stroke-width:15.4px;stroke-linecap:round;stroke-linejoin:miter;stroke-miterlimit:4;" /><path d="M112.987,258.656l-99.002,1.807" style="fill:none;fill-rule:nonzero;stroke:#f30;stroke-width:15.4px;stroke-linecap:round;stroke-linejoin:miter;stroke-miterlimit:4;" /><path d="M125.783,196.863l-90.145,-40.973" style="fill:none;fill-rule:nonzero;stroke:#f30;stroke-width:15.4px;stroke-linecap:round;stroke-linejoin:miter;stroke-miterlimit:4;" /><path d="M184.389,132.231l-49.571,-85.717" style="fill:none;fill-rule:nonzero;stroke:#f30;stroke-width:15.4px;stroke-linecap:round;stroke-linejoin:miter;stroke-miterlimit:4;" /><path d="M265.509,113.336l6.59,-98.8" style="fill:none;fill-rule:nonzero;stroke:#f30;stroke-width:15.4px;stroke-linecap:round;stroke-linejoin:miter;stroke-miterlimit:4;" /><path d="M331.561,134.613l52.317,-84.069" style="fill:none;fill-rule:nonzero;stroke:#f30;stroke-width:15.4px;stroke-linecap:round;stroke-linejoin:miter;stroke-miterlimit:4;" /><path d="M380.354,185.403l86.098,-48.907" style="fill:none;fill-rule:nonzero;stroke:#f30;stroke-width:15.4px;stroke-linecap:round;stroke-linejoin:miter;stroke-miterlimit:4;" /></g></svg>