<svg xmlns="http://www.w3.org/2000/svg" width="512" height="512" viewBox="0 0 512 512" version="1.1" xml:space="preserve" style="fill-rule:evenodd;clip-rule:evenodd;stroke-linejoin:round;stroke-miterlimit:2;"><g transform="matrix(0.91464078 0 0 0.91464078 21.85196117 21.85196117)"><rect fill="#000" x="0" y="0" width="512" height="512" style="stroke:#939598;stroke-width:3px;" /><path d="M171.614,441.931l-6.057,2.762l-4.225,-5.187l3.54,-4.861l5.004,1.418l1.738,5.868Z" style="fill:#c6d0de;fill-rule:nonzero;stroke:#8b96a9;stroke-opacity:0.8;stroke-width:0.82px;stroke-linejoin:miter;stroke-miterlimit:4;" /><path d="M196.568,437.323l-4.387,1.964l-3.928,-4.06l2.031,-4.593l6.414,0.962l-0.13,5.727Z" style="fill:#c6d0de;fill-rule:nonzero;stroke:#8b96a9;stroke-opacity:0.8;stroke-width:0.82px;stroke-linejoin:miter;stroke-miterlimit:4;" /><path d="M329.894,81.777l6.018,-2.848l4.298,5.126l-3.471,4.911l-5.023,-1.346l-1.822,-5.843Z" style="fill:#c6d0de;fill-rule:nonzero;stroke:#8b96a9;stroke-opacity:0.8;stroke-width:0.82px;stroke-linejoin:miter;stroke-miterlimit:4;" /><path d="M367.931,100.064l6.085,-3.49l2.763,5.124l-2.414,5.3l-6.052,-1.876l-0.382,-5.058Z" style="fill:#c6d0de;fill-rule:nonzero;stroke:#8b96a9;stroke-opacity:0.8;stroke-width:0.82px;stroke-linejoin:miter;stroke-miterlimit:4;" /><path d="M318.202,77.267l4.853,-2.882l4.162,4.199l-2.756,5.091l-5.922,-0.865l-0.337,-5.543Z" style="fill:#c6d0de;fill-rule:nonzero;stroke:#8b96a9;stroke-opacity:0.8;stroke-width:0.82px;stroke-linejoin:miter;stroke-miterlimit:4;" /><path d="M290.159,450.603l-6.238,3.116l-5.018,-4.864l3.395,-5.923l5.936,1.384l1.925,6.287l0,0Z" style="fill:#c6d0de;fill-rule:nonzero;stroke:#8b96a9;stroke-opacity:0.8;stroke-width:0.82px;stroke-linejoin:miter;stroke-miterlimit:4;" /><path d="M386.925,125.432l3.502,-1.327l2.977,0.985l2.397,3.828l-2.83,2.395l-3.601,0.84l-2.845,-2.593l0.4,-4.128Z" style="fill:#c6d0de;fill-rule:nonzero;stroke:#8b96a9;stroke-opacity:0.8;stroke-width:0.82px;stroke-linejoin:miter;stroke-miterlimit:4;" /><path d="M266.026,83.369l2.882,-1.757l2.539,1.642l1.399,2.933l-1.773,3.002l-3.038,-0.113l-2.121,-1.265l0.112,-4.442Z" style="fill:#c6d0de;fill-rule:nonzero;stroke:#8b96a9;stroke-opacity:0.8;stroke-width:0.82px;stroke-linejoin:miter;stroke-miterlimit:4;" /><path d="M361.666,89.338l3.392,-2.082l2.623,1.384l1.661,3.368l-1.561,3.738l-3.153,0.276l-3.065,-2.179l0.103,-4.505Z" style="fill:#c6d0de;fill-rule:nonzero;stroke:#8b96a9;stroke-opacity:0.8;stroke-width:0.82px;stroke-linejoin:miter;stroke-miterlimit:4;" /><path d="M391.537,139.153l4.365,-3.944l4.826,5.506l-3.525,4.309l-4.991,-0.903l-0.675,-4.968Z" style="fill:#c6d0de;fill-rule:nonzero;stroke:#8b96a9;stroke-opacity:0.8;stroke-width:0.82px;stroke-linejoin:miter;stroke-miterlimit:4;" /><path d="M420.682,324.155l5.399,0.32l2.191,4.891l-2.373,3.666l-4.077,2.525l-4.978,-3.929l0.5,-4.705l3.338,-2.768Z" style="fill:#c6d0de;fill-rule:nonzero;stroke:#8b96a9;stroke-opacity:0.8;stroke-width:0.82px;stroke-linejoin:miter;stroke-miterlimit:4;" /><path d="M446.241,244.036l6.801,1.72l-1.576,5.604l-5.419,2.133l-3.047,-5.555l3.241,-3.902Z" style="fill:#c6d0de;fill-rule:nonzero;stroke:#8b96a9;stroke-opacity:0.8;stroke-width:0.82px;stroke-linejoin:miter;stroke-miterlimit:4;" /><path d="M436.877,256.863l3.526,1.31l0.382,3.274l-2.465,2.551l-3.499,-0.397l-0.511,-3.484l2.567,-3.254Z" style="fill:#c6d0de;fill-rule:nonzero;stroke:#8b96a9;stroke-opacity:0.8;stroke-width:0.82px;stroke-linejoin:miter;stroke-miterlimit:4;" /><path d="M450.956,231.522l4.952,0.896l1.046,4.088l-1.115,3.885l-4.691,1.329l-2.874,-3.675l-0.297,-3.454l2.979,-3.069Z" style="fill:#c6d0de;fill-rule:nonzero;stroke:#8b96a9;stroke-opacity:0.8;stroke-width:0.82px;stroke-linejoin:miter;stroke-miterlimit:4;" /><path d="M440.116,299.145l5.625,1.681l0.428,5.798l-6.345,0.931l-3.215,-4.345l3.507,-4.065Z" style="fill:#c6d0de;fill-rule:nonzero;stroke:#8b96a9;stroke-opacity:0.8;stroke-width:0.82px;stroke-linejoin:miter;stroke-miterlimit:4;" /><path d="M403.23,323.666l3.382,0.522l1.152,2.742l-0.895,3.789l-3.641,0.981l-2.449,-2.572l0.188,-3.416l2.263,-2.046Z" style="fill:#c6d0de;fill-rule:nonzero;stroke:#8b96a9;stroke-opacity:0.8;stroke-width:0.82px;stroke-linejoin:miter;stroke-miterlimit:4;" /><path d="M418.606,326.675l3.315,1.122l2.149,2.394l-1.699,3.849l-2.605,1.014l-2.737,-2.29l-0.445,-3.026l2.022,-3.063Z" style="fill:#c6d0de;fill-rule:nonzero;stroke:#8b96a9;stroke-opacity:0.8;stroke-width:0.82px;stroke-linejoin:miter;stroke-miterlimit:4;" /><path d="M440.259,200.94l4.181,2.38l0.546,4.967l-6.041,1.568l-1.948,-4.458l3.262,-4.457Z" style="fill:#c6d0de;fill-rule:nonzero;stroke:#8b96a9;stroke-opacity:0.8;stroke-width:0.82px;stroke-linejoin:miter;stroke-miterlimit:4;" /><path d="M427.869,183.242l5.656,0.876l-0.502,7.191l-6.522,1.872l-3.276,-5.569l4.644,-4.37Z" style="fill:#c6d0de;fill-rule:nonzero;stroke:#8b96a9;stroke-opacity:0.8;stroke-width:0.82px;stroke-linejoin:miter;stroke-miterlimit:4;" /><path d="M447.622,270.122l4.997,1.389l1.668,4.953l-2.913,2.887l-4.506,-0.5l-1.33,-5.204l2.084,-3.525Z" style="fill:#c6d0de;fill-rule:nonzero;stroke:#8b96a9;stroke-opacity:0.8;stroke-width:0.82px;stroke-linejoin:miter;stroke-miterlimit:4;" /><path d="M436.046,288.547l5.879,0.198l-0.356,7.313l-5.53,0.649l-2.961,-4.119l2.968,-4.041Z" style="fill:#c6d0de;fill-rule:nonzero;stroke:#8b96a9;stroke-opacity:0.8;stroke-width:0.82px;stroke-linejoin:miter;stroke-miterlimit:4;" /><path d="M367.55,405.202l0.766,3.5l-1.812,2.941l-4.04,1.323l-2.238,-3.655l0.589,-3.4l3.18,-2.116l3.555,1.407Z" style="fill:#c6d0de;fill-rule:nonzero;stroke:#8b96a9;stroke-opacity:0.8;stroke-width:0.82px;stroke-linejoin:miter;stroke-miterlimit:4;" /><path d="M346.118,433.741l1.231,6.906l-5.757,0.871l-4.173,-4.062l3.809,-5.063l4.89,1.348Z" style="fill:#c6d0de;fill-rule:nonzero;stroke:#8b96a9;stroke-opacity:0.8;stroke-width:0.82px;stroke-linejoin:miter;stroke-miterlimit:4;" /><path d="M314.577,441.147l0.068,3.744l-1.934,2.47l-4.411,0.964l-1.299,-3.473l0.424,-3.673l3.401,-1.803l3.751,1.771Z" style="fill:#c6d0de;fill-rule:nonzero;stroke:#8b96a9;stroke-opacity:0.8;stroke-width:0.82px;stroke-linejoin:miter;stroke-miterlimit:4;" /><path d="M396.235,343.456l0.681,3.305l-2.402,1.836l-3.233,0.327l-2.228,-2.683l1.133,-2.822l1.907,-1.569l4.142,1.606Z" style="fill:#c6d0de;fill-rule:nonzero;stroke:#8b96a9;stroke-opacity:0.8;stroke-width:0.82px;stroke-linejoin:miter;stroke-miterlimit:4;" /><path d="M412.714,356.299l1.738,3.213l-2.288,2.09l-2.739,0.505l-3.129,-1.91l1.369,-2.984l2.712,-1.745l2.337,0.831Z" style="fill:#c6d0de;fill-rule:nonzero;stroke:#8b96a9;stroke-opacity:0.8;stroke-width:0.82px;stroke-linejoin:miter;stroke-miterlimit:4;" /><path d="M358.329,431.465l0.814,3.896l-2.188,2.001l-3.73,0.427l-2.992,-2.731l0.804,-3.061l3.087,-2.149l4.205,1.617Z" style="fill:#c6d0de;fill-rule:nonzero;stroke:#8b96a9;stroke-opacity:0.8;stroke-width:0.82px;stroke-linejoin:miter;stroke-miterlimit:4;" /><path d="M382.934,410.555l-0.448,4.791l-4.302,2.542l-3.916,-4.862l3.262,-3.609l5.404,1.138Z" style="fill:#c6d0de;fill-rule:nonzero;stroke:#8b96a9;stroke-opacity:0.8;stroke-width:0.82px;stroke-linejoin:miter;stroke-miterlimit:4;" /><path d="M393.967,391.981l1.529,5.515l-6.762,2.501l-4.389,-5.173l3.727,-5.278l5.895,2.435Z" style="fill:#c6d0de;fill-rule:nonzero;stroke:#8b96a9;stroke-opacity:0.8;stroke-width:0.82px;stroke-linejoin:miter;stroke-miterlimit:4;" /><path d="M322.911,445.734l0.79,5.126l-3.828,3.558l-3.83,-1.467l-1.398,-4.313l4.196,-3.352l4.07,0.448Z" style="fill:#c6d0de;fill-rule:nonzero;stroke:#8b96a9;stroke-opacity:0.8;stroke-width:0.82px;stroke-linejoin:miter;stroke-miterlimit:4;" /><path d="M388.58,364.386l0.807,2.308l-1.328,3.49l-4.516,0.646l-2.894,-3.092l1.023,-4.39l3.247,-0.599l3.661,1.637Z" style="fill:#c6d0de;fill-rule:nonzero;stroke:#8b96a9;stroke-opacity:0.8;stroke-width:0.82px;stroke-linejoin:miter;stroke-miterlimit:4;" /><path d="M401.815,369.1l-0.021,3.641l-3.342,2.472l-2.717,-3.192l2.378,-3.897l3.702,0.976Z" style="fill:#c6d0de;fill-rule:nonzero;stroke:#8b96a9;stroke-opacity:0.8;stroke-width:0.82px;stroke-linejoin:miter;stroke-miterlimit:4;" /><path d="M182.668,92.494l-0.918,-3.414l3.193,-2.246l3.217,1.865l-0.122,3.55l-1.821,2.454l-3.549,-2.209Z" style="fill:#c6d0de;fill-rule:nonzero;stroke:#8b96a9;stroke-opacity:0.8;stroke-width:0.82px;stroke-linejoin:miter;stroke-miterlimit:4;" /><path d="M188.866,76.932l-0.663,-6.983l5.809,-0.397l3.827,4.39l-4.21,4.734l-4.763,-1.744Z" style="fill:#c6d0de;fill-rule:nonzero;stroke:#8b96a9;stroke-opacity:0.8;stroke-width:0.82px;stroke-linejoin:miter;stroke-miterlimit:4;" /><path d="M204.092,81.45l0.049,-3.761l2.957,-1.458l3.23,1.466l0.8,3.429l-3.11,1.65l-3.926,-1.326Z" style="fill:#c6d0de;fill-rule:nonzero;stroke:#8b96a9;stroke-opacity:0.8;stroke-width:0.82px;stroke-linejoin:miter;stroke-miterlimit:4;" /><path d="M217.936,64.635l-0.835,-2.389l2.594,-2.673l2.674,-0.771l1.76,3.576l-0.46,3.563l-2.748,0.401l-2.985,-1.707Z" style="fill:#c6d0de;fill-rule:nonzero;stroke:#8b96a9;stroke-opacity:0.8;stroke-width:0.82px;stroke-linejoin:miter;stroke-miterlimit:4;" /><path d="M175.495,76.689l-0.817,-4.966l3.5,-2.356l4.034,-0.253l2.826,3.972l-2.499,3.941l-3.154,1.439l-3.89,-1.777Z" style="fill:#c6d0de;fill-rule:nonzero;stroke:#8b96a9;stroke-opacity:0.8;stroke-width:0.82px;stroke-linejoin:miter;stroke-miterlimit:4;" /><path d="M242.835,64.212l-0.303,-5.862l5.318,-2.349l3.007,5.666l-3.015,4.486l-5.007,-1.941Z" style="fill:#c6d0de;fill-rule:nonzero;stroke:#8b96a9;stroke-opacity:0.8;stroke-width:0.82px;stroke-linejoin:miter;stroke-miterlimit:4;" /><path d="M278.311,90.734l-0.644,-3.362l2.197,-2.004l3.87,-0.428l2.146,3.1l-1.602,3.171l-3.282,0.968l-2.685,-1.445Z" style="fill:#c6d0de;fill-rule:nonzero;stroke:#8b96a9;stroke-opacity:0.8;stroke-width:0.82px;stroke-linejoin:miter;stroke-miterlimit:4;" /><path d="M150.275,97.027l0.839,-4.738l4.495,-2.181l3.505,5.165l-3.546,3.331l-5.293,-1.577Z" style="fill:#c6d0de;fill-rule:nonzero;stroke:#8b96a9;stroke-opacity:0.8;stroke-width:0.82px;stroke-linejoin:miter;stroke-miterlimit:4;" /><path d="M264.305,75.766l-0.878,-5.12l3.857,-1.485l4.736,1.283l-0.028,5.279l-3.11,2.027l-4.577,-1.984Z" style="fill:#c6d0de;fill-rule:nonzero;stroke:#8b96a9;stroke-opacity:0.8;stroke-width:0.82px;stroke-linejoin:miter;stroke-miterlimit:4;" /><path d="M234.217,71.603l-1.786,-5.605l7.009,-2.118l2.466,4.991l-2.887,4.171l-4.802,-1.439Z" style="fill:#c6d0de;fill-rule:nonzero;stroke:#8b96a9;stroke-opacity:0.8;stroke-width:0.82px;stroke-linejoin:miter;stroke-miterlimit:4;" /><path d="M244.666,82.49l-1.406,-2.935l2.529,-3.6l5.4,-0.479l1.871,3.126l-0.552,4.729l-3.514,2.201l-4.328,-3.042Z" style="fill:#c6d0de;fill-rule:nonzero;stroke:#8b96a9;stroke-opacity:0.8;stroke-width:0.82px;stroke-linejoin:miter;stroke-miterlimit:4;" /><path d="M76.72,243.913l-3.34,-1.158l-0.066,-3.903l3.35,-1.615l2.869,2.095l1.008,2.884l-3.821,1.697Z" style="fill:#c6d0de;fill-rule:nonzero;stroke:#8b96a9;stroke-opacity:0.8;stroke-width:0.82px;stroke-linejoin:miter;stroke-miterlimit:4;" /><path d="M76.102,264.64l-3.207,-1.599l-1.153,-3.256l1.505,-3.976l4.25,0.55l2.278,2.592l-0.347,3.803l-3.326,1.886Z" style="fill:#c6d0de;fill-rule:nonzero;stroke:#8b96a9;stroke-opacity:0.8;stroke-width:0.82px;stroke-linejoin:miter;stroke-miterlimit:4;" /><path d="M128.002,166.321l-5.183,-3.582l2.393,-7.536l5.391,0.575l3.037,6.652l-5.638,3.891Z" style="fill:#c6d0de;fill-rule:nonzero;stroke:#8b96a9;stroke-opacity:0.8;stroke-width:0.82px;stroke-linejoin:miter;stroke-miterlimit:4;" /><path d="M88.747,290.691l-4.001,-2.663l1.341,-5.488l4.967,-0.732l2.607,5.939l-4.914,2.944Z" style="fill:#c6d0de;fill-rule:nonzero;stroke:#8b96a9;stroke-opacity:0.8;stroke-width:0.82px;stroke-linejoin:miter;stroke-miterlimit:4;" /><path d="M79.611,219.984l-3.083,-2.153l0.453,-3.266l3.027,-1.849l3.287,1.263l-0.382,3.5l-3.302,2.505Z" style="fill:#c6d0de;fill-rule:nonzero;stroke:#8b96a9;stroke-opacity:0.8;stroke-width:0.82px;stroke-linejoin:miter;stroke-miterlimit:4;" /><path d="M73.471,199.086l-2.445,-0.651l-0.755,-3.647l0.863,-2.645l3.949,0.551l2.689,2.381l-1.212,2.499l-3.089,1.512Z" style="fill:#c6d0de;fill-rule:nonzero;stroke:#8b96a9;stroke-opacity:0.8;stroke-width:0.82px;stroke-linejoin:miter;stroke-miterlimit:4;" /><path d="M59.614,240.973l-4.568,-2.112l0.016,-4.22l2.056,-3.48l4.874,-0.107l1.858,4.28l-0.581,3.417l-3.655,2.222Z" style="fill:#c6d0de;fill-rule:nonzero;stroke:#8b96a9;stroke-opacity:0.8;stroke-width:0.82px;stroke-linejoin:miter;stroke-miterlimit:4;" /><path d="M128.97,163.783l-3.143,-1.354l-0.426,-2.944l1.819,-3.443l3.771,-0.034l1.724,3.105l-1.041,3.26l-2.704,1.41Z" style="fill:#c6d0de;fill-rule:nonzero;stroke:#8b96a9;stroke-opacity:0.8;stroke-width:0.82px;stroke-linejoin:miter;stroke-miterlimit:4;" /><path d="M114.843,157.006l-2.927,-1.918l-1.477,-2.858l2.612,-3.299l2.776,-0.326l2.073,2.905l-0.329,3.04l-2.728,2.456Z" style="fill:#c6d0de;fill-rule:nonzero;stroke:#8b96a9;stroke-opacity:0.8;stroke-width:0.82px;stroke-linejoin:miter;stroke-miterlimit:4;" /><path d="M85.848,330.491l-3.591,-0.663l-0.193,-3.092l1.325,-2.449l3.451,-1.239l1.465,2.937l-0.342,3.208l-2.115,1.298Z" style="fill:#c6d0de;fill-rule:nonzero;stroke:#8b96a9;stroke-opacity:0.8;stroke-width:0.82px;stroke-linejoin:miter;stroke-miterlimit:4;" /><path d="M62.281,273.262l-3.449,-3.355l0.72,-4.944l6.242,0.001l0.764,4.804l-4.277,3.494Z" style="fill:#c6d0de;fill-rule:nonzero;stroke:#8b96a9;stroke-opacity:0.8;stroke-width:0.82px;stroke-linejoin:miter;stroke-miterlimit:4;" /><path d="M88.38,189.526l-5.641,-1.669l2.183,-6.988l5.515,0.761l1.83,4.731l-3.887,3.165Z" style="fill:#c6d0de;fill-rule:nonzero;stroke:#8b96a9;stroke-opacity:0.8;stroke-width:0.82px;stroke-linejoin:miter;stroke-miterlimit:4;" /><path d="M103.256,186.994l-3.219,-0.485l-1.558,-4.113l2.635,-4.738l3.638,0.207l3.603,3.113l-0.152,4.143l-4.947,1.873Z" style="fill:#c6d0de;fill-rule:nonzero;stroke:#8b96a9;stroke-opacity:0.8;stroke-width:0.82px;stroke-linejoin:miter;stroke-miterlimit:4;" /><path d="M131.882,407.344l-3.466,1.46l-2.521,-2.125l0.051,-3.546l2.821,-2.107l2.757,2.189l0.358,4.129Z" style="fill:#c6d0de;fill-rule:nonzero;stroke:#8b96a9;stroke-opacity:0.8;stroke-width:0.82px;stroke-linejoin:miter;stroke-miterlimit:4;" /><path d="M193.364,452.799l-5.024,2.001l-1.653,-3.259l1.731,-3.843l4.684,0.425l0.262,4.676Z" style="fill:#c6d0de;fill-rule:nonzero;stroke:#8b96a9;stroke-opacity:0.8;stroke-width:0.82px;stroke-linejoin:miter;stroke-miterlimit:4;" /><path d="M225.424,447.246l-4.023,1.079l-2.769,-1.827l2.081,-3.535l3.416,0.616l1.295,3.667Z" style="fill:#c6d0de;fill-rule:nonzero;stroke:#8b96a9;stroke-opacity:0.8;stroke-width:0.82px;stroke-linejoin:miter;stroke-miterlimit:4;" /><path d="M107.355,376.487l-6.804,2.839l-5.263,-5.224l3.249,-5.899l8.113,2.008l0.705,6.276Z" style="fill:#c6d0de;fill-rule:nonzero;stroke:#8b96a9;stroke-opacity:0.8;stroke-width:0.82px;stroke-linejoin:miter;stroke-miterlimit:4;" /><path d="M235.498,441.247l-2.906,1.716l-2.515,-1.678l-1.358,-2.952l1.816,-2.977l3.036,0.156l2.103,1.295l-0.176,4.44Z" style="fill:#c6d0de;fill-rule:nonzero;stroke:#8b96a9;stroke-opacity:0.8;stroke-width:0.82px;stroke-linejoin:miter;stroke-miterlimit:4;" /><path d="M139.953,433.919l-3.421,2.033l-2.603,-1.421l-1.613,-3.391l1.613,-3.716l3.157,-0.231l3.034,2.223l-0.167,4.503Z" style="fill:#c6d0de;fill-rule:nonzero;stroke:#8b96a9;stroke-opacity:0.8;stroke-width:0.82px;stroke-linejoin:miter;stroke-miterlimit:4;" /><path d="M114.973,405.039l-4.593,2.409l-4.607,-2.468l0.146,-4.098l3.627,-2.721l4.532,2.882l0.895,3.996Z" style="fill:#c6d0de;fill-rule:nonzero;stroke:#8b96a9;stroke-opacity:0.8;stroke-width:0.82px;stroke-linejoin:miter;stroke-miterlimit:4;" /><path d="M213.048,454.839l-3.452,1.16l-3.422,-2.361l2.139,-3.605l4.457,0.987l0.278,3.819Z" style="fill:#c6d0de;fill-rule:nonzero;stroke:#8b96a9;stroke-opacity:0.8;stroke-width:0.82px;stroke-linejoin:miter;stroke-miterlimit:4;" /><circle cx="253.145" cy="257.587" r="40.456" style="fill:#ffc63d;stroke:#fff7bf;stroke-opacity:0.95;stroke-width:3.47px;stroke-linejoin:miter;stroke-miterlimit:4;" /></g></svg>