<svg xmlns="http://www.w3.org/2000/svg" width="512" height="512" viewBox="0 0 512 512" version="1.1" xml:space="preserve" style="fill-rule:evenodd;clip-rule:evenodd;stroke-linejoin:round;stroke-miterlimit:2;"><g transform="matrix(0.91464078 0 0 0.91464078 21.85196117 21.85196117)"><rect fill="#000" x="0" y="0" width="512" height="512" style="stroke:#939598;stroke-width:3px;" /><path d="M512,353.602l0,158.398l-512,0l0,-158.398c71.541,-14.827 160.127,-23.602 256,-23.602c95.873,0 184.459,8.775 256,23.602Z" style="fill:#445062;" /><path d="M0,180.732c21.333,-0 42.667,-3.102 64,-9.305c21.333,0 42.667,-6.006 64,-18.019c21.333,-0 42.667,-5.391 64,-16.175c21.333,0 42.667,-1.621 64,-4.862c21.333,0 42.667,3.102 64,9.304c21.333,0 42.667,6.007 64,18.019c21.333,0 42.667,5.392 64,16.176c21.333,-0 42.667,1.62 64,4.862l0,20.154c-170.844,3.259 -341.695,6.656 -512,-0l0,-20.154Z" style="fill:#00900d;fill-opacity:0.15;" /><path d="M0,268.206c21.333,-0 52.588,12.943 73.921,2.259c21.333,-0 50.626,-13.174 71.959,-33.866c21.333,-0 105.67,12.898 127.003,7.315c21.333,-0 89.784,-32.634 111.117,-11.943c21.333,-0 25.794,30.983 47.127,49.556c21.333,0 59.54,-18.904 80.873,-13.321l0,34.713c-131.009,11.141 -278.457,13.79 -512,-0l0,-34.713Z" style="fill:#160040;fill-opacity:0.15;" /><path d="M0,97.658c21.333,0 42.667,-5.342 64,-16.026c21.333,0 159.952,-18.853 181.285,-24.436c21.333,0 53.382,-37.493 74.715,-26.809c21.333,0 42.667,10.345 64,31.036c21.333,0 42.667,9.287 64,27.86c21.333,0 42.667,2.792 64,8.375l0,34.713c-162.621,-18.903 -324.279,-40.067 -512,0l0,-34.713Z" style="fill:#f60000;fill-opacity:0.15;" /></g></svg>