<svg xmlns="http://www.w3.org/2000/svg" width="512" height="512" viewBox="0 0 512 512" version="1.1" xml:space="preserve" style="fill-rule:evenodd;clip-rule:evenodd;stroke-linejoin:round;stroke-miterlimit:2;"><g transform="matrix(0.91464078 0 0 0.91464078 21.85196117 21.85196117)"><rect fill="#000" x="0" y="0" width="512" height="512" style="stroke:#939598;stroke-width:3px;" /><circle cx="37.662" cy="465.425" r="2.425" style="fill:#fff;fill-opacity:0.5;" /><circle cx="222.945" cy="486.027" r="1.807" style="fill:#fff;fill-opacity:0.87;" /><circle cx="184.36" cy="50.807" r="1.807" style="fill:#fff;fill-opacity:0.87;" /><circle cx="437.19" cy="63.826" r="1.545" style="fill:#fff;fill-opacity:0.63;" /><circle cx="449.893" cy="428.488" r="2.009" style="fill:#fff;fill-opacity:0.92;" /><circle cx="62.333" cy="109.286" r="2.235" style="fill:#fff;fill-opacity:0.92;" /><path d="M224.988,146.137c66.201,-13.605 130.994,29.097 144.599,95.298c13.605,66.201 -29.097,130.994 -95.298,144.599c-66.201,13.605 -130.994,-29.096 -144.599,-95.298c-13.605,-66.201 29.097,-130.994 95.298,-144.599Z" style="fill:#cdcdcd;" /><path d="M104.995,295.811c42.962,-23.536 90.178,-44.27 139.568,-54.421c49.391,-10.15 100.957,-9.716 149.719,-5.03c-42.962,23.537 -90.178,44.271 -139.568,54.421c-49.391,10.15 -100.956,9.717 -149.719,5.03Z" style="fill:#b0b0b0;fill-rule:nonzero;" /><g><g><g><g><g><g><g><clipPath id="_clip1"><path d="M213.388,89.691l72.501,352.789l-176.394,36.251l-72.502,-352.789l176.395,-36.251Z" /></clipPath><g clip-path="url(#_clip1)"><path d="M224.988,146.137c66.201,-13.605 130.994,29.097 144.599,95.298c13.605,66.201 -29.097,130.994 -95.298,144.599c-66.201,13.605 -130.994,-29.096 -144.599,-95.298c-13.605,-66.201 29.097,-130.994 95.298,-144.599Z" style="fill:#f1f1f1;fill-opacity:0.9;" /><path d="M104.995,295.811c42.962,-23.536 90.178,-44.27 139.568,-54.421c49.391,-10.15 100.957,-9.716 149.719,-5.03c-42.962,23.537 -90.178,44.271 -139.568,54.421c-49.391,10.15 -100.956,9.717 -149.719,5.03Z" style="fill:#f1f1f1;fill-opacity:0.9;fill-rule:nonzero;" /></g></g></g></g></g></g></g></g><circle id="BH" fill="#000" cx="249.638" cy="266.086" r="93.658" /><path d="M104.934,295.239c41.509,-12.352 87.324,-24.582 135.69,-34.354c48.367,-9.771 99.286,-17.083 147.599,-22.878c-41.51,12.352 -87.325,24.583 -135.691,34.354c-48.367,9.772 -99.284,17.084 -147.598,22.878Z" style="fill:#e2e2e2;fill-rule:nonzero;" /></g></svg>