<svg xmlns="http://www.w3.org/2000/svg" width="512" height="512" viewBox="0 0 512 512" version="1.1" xml:space="preserve" style="fill-rule:evenodd;clip-rule:evenodd;stroke-linejoin:round;stroke-miterlimit:2;"><g transform="matrix(0.91464078 0 0 0.91464078 21.85196117 21.85196117)"><rect fill="#000" x="0" y="0" width="512" height="512" style="stroke:#939598;stroke-width:3px;" /><path d="M512,353.602l0,158.398l-512,0l0,-158.398c71.541,-14.827 160.127,-23.602 256,-23.602c95.873,0 184.459,8.775 256,23.602Z" style="fill:#445062;" /><path d="M304.594,166.508c12.653,-39.733 25.781,-82.558 39.384,-128.475" style="fill:none;fill-rule:nonzero;stroke:#b8b8b8;stroke-opacity:0.9;stroke-width:7.84px;stroke-linecap:round;stroke-linejoin:miter;stroke-miterlimit:4;" /><path d="M304.594,166.508c17.655,-36.783 33.284,-78.132 46.887,-124.049" style="fill:none;fill-rule:nonzero;stroke:#757575;stroke-opacity:0.9;stroke-width:12.2px;stroke-linecap:round;stroke-linejoin:miter;stroke-miterlimit:4;" /><path d="M291.464,158.762c4.275,-7.246 13.629,-9.659 20.876,-5.383c7.246,4.275 9.659,13.629 5.384,20.875c-4.275,7.247 -13.63,9.659 -20.876,5.384c-7.247,-4.275 -9.659,-13.629 -5.384,-20.876Z" style="fill:#fff;stroke:#ffffe5;stroke-opacity:0.9;stroke-width:1.74px;stroke-linejoin:miter;stroke-miterlimit:4;" /><path d="M297.481,188.552l-51.244,152.473" style="fill:none;fill-rule:nonzero;stroke:#9bd2ff;stroke-opacity:0.6;stroke-width:3.67px;stroke-linejoin:miter;stroke-miterlimit:4;stroke-dasharray:9.17,9.17;" /><ellipse cx="246.237" cy="341.025" rx="28.811" ry="27.433" style="fill:#ffb671;stroke:#fff;stroke-width:4.39px;stroke-linejoin:miter;stroke-miterlimit:4;" /></g></svg>