<svg xmlns="http://www.w3.org/2000/svg" width="512" height="512" viewBox="0 0 512 512" version="1.1" xml:space="preserve" style="fill-rule:evenodd;clip-rule:evenodd;stroke-linejoin:round;stroke-miterlimit:2;"><g transform="matrix(0.91464078 0 0 0.91464078 21.85196117 21.85196117)"><rect fill="#000" x="0" y="0" width="512" height="512" style="stroke:#939598;stroke-width:3px;" /><circle cx="474.6" cy="179.1" r="1.14" style="fill:#fff;fill-opacity:0.95;" /><circle cx="445.7" cy="202.7" r="1.18" style="fill:#fff;fill-opacity:0.95;" /><circle cx="143.8" cy="158.5" r="0.94" style="fill:#fff;fill-opacity:0.95;" /><circle cx="45.203" cy="455.191" r="1.85" style="fill:#fff;fill-opacity:0.95;" /><circle cx="436.5" cy="252.1" r="1.66" style="fill:#fff;fill-opacity:0.95;" /><circle cx="445.8" cy="249.1" r="0.72" style="fill:#fff;fill-opacity:0.95;" /><circle cx="371.6" cy="256.5" r="1.87" style="fill:#fff;fill-opacity:0.95;" /><circle cx="135.5" cy="118.2" r="2.01" style="fill:#fff;fill-opacity:0.95;" /><circle cx="122.2" cy="190" r="0.99" style="fill:#fff;fill-opacity:0.95;" /><circle cx="428.4" cy="397.8" r="1.81" style="fill:#fff;fill-opacity:0.95;" /><circle cx="403.4" cy="258.3" r="1.71" style="fill:#fff;fill-opacity:0.95;" /><circle cx="372.7" cy="386.3" r="1.18" style="fill:#fff;fill-opacity:0.95;" /><circle cx="125.1" cy="254.5" r="2.18" style="fill:#fff;fill-opacity:0.95;" /><circle cx="466.8" cy="301.3" r="1.8" style="fill:#fff;fill-opacity:0.95;" /><circle cx="413.4" cy="161.7" r="1.68" style="fill:#fff;fill-opacity:0.95;" /><circle cx="56.2" cy="278.8" r="1.95" style="fill:#fff;fill-opacity:0.95;" /><circle cx="409.154" cy="470.322" r="2.19" style="fill:#fff;fill-opacity:0.95;" /><circle cx="435.3" cy="95.5" r="1.06" style="fill:#fff;fill-opacity:0.95;" /><circle cx="67.7" cy="418.7" r="1.2" style="fill:#fff;fill-opacity:0.95;" /><circle cx="391.9" cy="334.3" r="1.33" style="fill:#fff;fill-opacity:0.95;" /><circle cx="93.1" cy="192.5" r="1.96" style="fill:#fff;fill-opacity:0.95;" /><circle cx="109" cy="241.9" r="1.44" style="fill:#fff;fill-opacity:0.95;" /><circle cx="414.5" cy="80.5" r="1.82" style="fill:#fff;fill-opacity:0.95;" /><circle cx="101.5" cy="232" r="1.37" style="fill:#fff;fill-opacity:0.95;" /><circle cx="109" cy="420.3" r="2.07" style="fill:#fff;fill-opacity:0.95;" /><circle cx="55.5" cy="374.5" r="2.19" style="fill:#fff;fill-opacity:0.95;" /><circle cx="418.7" cy="301.9" r="1.7" style="fill:#fff;fill-opacity:0.95;" /><circle cx="405.7" cy="247.7" r="1.62" style="fill:#fff;fill-opacity:0.95;" /><circle cx="60.4" cy="339.3" r="1.93" style="fill:#fff;fill-opacity:0.95;" /><circle cx="369" cy="397.8" r="0.67" style="fill:#fff;fill-opacity:0.95;" /><circle cx="112.2" cy="247.3" r="1.74" style="fill:#fff;fill-opacity:0.95;" /><circle cx="448.1" cy="193.2" r="0.72" style="fill:#fff;fill-opacity:0.95;" /><circle cx="141.6" cy="81.6" r="1.22" style="fill:#fff;fill-opacity:0.95;" /><circle cx="128.1" cy="196.8" r="1.04" style="fill:#fff;fill-opacity:0.95;" /><circle cx="375.3" cy="399.8" r="1.97" style="fill:#fff;fill-opacity:0.95;" /><circle cx="422" cy="359.4" r="1.15" style="fill:#fff;fill-opacity:0.95;" /><circle cx="103" cy="201.9" r="2.06" style="fill:#fff;fill-opacity:0.95;" /><circle cx="107.3" cy="267.6" r="1.74" style="fill:#fff;fill-opacity:0.95;" /><circle cx="401.2" cy="271" r="1.15" style="fill:#fff;fill-opacity:0.95;" /><circle cx="94.6" cy="108.6" r="1.34" style="fill:#fff;fill-opacity:0.95;" /><circle cx="420.6" cy="409" r="1.39" style="fill:#fff;fill-opacity:0.95;" /><circle cx="452.2" cy="337.3" r="1.53" style="fill:#fff;fill-opacity:0.95;" /><circle cx="102.4" cy="348.9" r="1.05" style="fill:#fff;fill-opacity:0.95;" /><circle cx="86.6" cy="225.4" r="0.94" style="fill:#fff;fill-opacity:0.95;" /><circle cx="417.8" cy="412.2" r="1.11" style="fill:#fff;fill-opacity:0.95;" /><circle cx="55.9" cy="391.9" r="1.46" style="fill:#fff;fill-opacity:0.95;" /><circle cx="461.6" cy="256.7" r="2.06" style="fill:#fff;fill-opacity:0.95;" /><circle cx="437.5" cy="146" r="0.85" style="fill:#fff;fill-opacity:0.95;" /><circle cx="108.7" cy="220.6" r="1.63" style="fill:#fff;fill-opacity:0.95;" /><circle cx="401.8" cy="56.3" r="1.51" style="fill:#fff;fill-opacity:0.95;" /><circle cx="132.1" cy="89.5" r="1.79" style="fill:#fff;fill-opacity:0.95;" /><circle cx="371.5" cy="119.5" r="2.19" style="fill:#fff;fill-opacity:0.95;" /><circle cx="100.3" cy="95.5" r="1.67" style="fill:#fff;fill-opacity:0.95;" /><circle cx="453.6" cy="402.7" r="1.39" style="fill:#fff;fill-opacity:0.95;" /><circle cx="497.8" cy="266" r="1.66" style="fill:#fff;fill-opacity:0.95;" /><circle cx="448.7" cy="331.1" r="2.08" style="fill:#fff;fill-opacity:0.95;" /><circle cx="65.3" cy="140.8" r="2.18" style="fill:#fff;fill-opacity:0.95;" /><circle cx="426.4" cy="315.6" r="2.07" style="fill:#fff;fill-opacity:0.95;" /><circle cx="13.8" cy="309.1" r="1.83" style="fill:#fff;fill-opacity:0.95;" /><circle cx="473.2" cy="218.8" r="0.9" style="fill:#fff;fill-opacity:0.95;" /><circle cx="38.3" cy="281.2" r="1.6" style="fill:#fff;fill-opacity:0.95;" /><circle cx="56.7" cy="292.3" r="0.66" style="fill:#fff;fill-opacity:0.95;" /><circle cx="383.5" cy="148.1" r="0.84" style="fill:#fff;fill-opacity:0.95;" /><circle cx="498.8" cy="240.5" r="2" style="fill:#fff;fill-opacity:0.95;" /><circle cx="115.3" cy="420.6" r="0.99" style="fill:#fff;fill-opacity:0.95;" /><circle cx="392.5" cy="186.9" r="1.54" style="fill:#fff;fill-opacity:0.95;" /><circle cx="477.6" cy="348.7" r="1.27" style="fill:#fff;fill-opacity:0.95;" /><circle cx="47.8" cy="300.8" r="1.29" style="fill:#fff;fill-opacity:0.95;" /><circle cx="113.1" cy="339.2" r="1.22" style="fill:#fff;fill-opacity:0.95;" /><circle cx="130.9" cy="104.6" r="0.64" style="fill:#fff;fill-opacity:0.95;" /><circle cx="443.3" cy="143.6" r="1.51" style="fill:#fff;fill-opacity:0.95;" /><circle cx="103.5" cy="323.2" r="0.91" style="fill:#fff;fill-opacity:0.95;" /><circle cx="489.9" cy="305" r="0.82" style="fill:#fff;fill-opacity:0.95;" /><circle cx="113" cy="298.2" r="2.02" style="fill:#fff;fill-opacity:0.95;" /><circle cx="431.2" cy="295.4" r="1.77" style="fill:#fff;fill-opacity:0.95;" /><circle cx="108.4" cy="405.4" r="1.18" style="fill:#fff;fill-opacity:0.95;" /><circle cx="78.3" cy="127.4" r="1.59" style="fill:#fff;fill-opacity:0.95;" /><circle cx="461.7" cy="343.3" r="1.37" style="fill:#fff;fill-opacity:0.95;" /><circle cx="137.4" cy="241" r="1.13" style="fill:#fff;fill-opacity:0.95;" /><circle cx="428.3" cy="271.1" r="1.45" style="fill:#fff;fill-opacity:0.95;" /><circle cx="480.3" cy="300.3" r="1.59" style="fill:#fff;fill-opacity:0.95;" /><circle cx="86.2" cy="298.3" r="1.73" style="fill:#fff;fill-opacity:0.95;" /><circle cx="380.1" cy="220.1" r="1.84" style="fill:#fff;fill-opacity:0.95;" /><circle cx="431" cy="428.7" r="1.1" style="fill:#fff;fill-opacity:0.95;" /><circle cx="80.2" cy="305.7" r="0.68" style="fill:#fff;fill-opacity:0.95;" /><circle cx="393.2" cy="206" r="1.25" style="fill:#fff;fill-opacity:0.95;" /><circle cx="49" cy="256.2" r="1.32" style="fill:#fff;fill-opacity:0.95;" /><circle cx="83.7" cy="320.7" r="1.23" style="fill:#fff;fill-opacity:0.95;" /><circle cx="480.7" cy="301.7" r="1.93" style="fill:#fff;fill-opacity:0.95;" /><circle cx="61.1" cy="136.3" r="1.09" style="fill:#fff;fill-opacity:0.95;" /><circle cx="33.3" cy="252.9" r="0.72" style="fill:#fff;fill-opacity:0.95;" /><circle cx="364.5" cy="254.5" r="1.45" style="fill:#fff;fill-opacity:0.95;" /><circle cx="452.3" cy="234.7" r="1.01" style="fill:#fff;fill-opacity:0.95;" /><circle cx="384.9" cy="155.6" r="1.53" style="fill:#fff;fill-opacity:0.95;" /><circle cx="68.7" cy="344.1" r="1.59" style="fill:#fff;fill-opacity:0.95;" /><circle cx="96.3" cy="209.9" r="1.97" style="fill:#fff;fill-opacity:0.95;" /><circle cx="76" cy="324.6" r="1.97" style="fill:#fff;fill-opacity:0.95;" /></g></svg>