<svg xmlns="http://www.w3.org/2000/svg" width="512" height="512" viewBox="0 0 512 512" version="1.1" xml:space="preserve" style="fill-rule:evenodd;clip-rule:evenodd;stroke-linejoin:round;stroke-miterlimit:2;"><g transform="matrix(0.91464078 0 0 0.91464078 21.85196117 21.85196117)"><rect fill="#000" x="0" y="0" width="512" height="512" style="stroke:#949698;stroke-width:3px;" /><circle cx="256" cy="256" r="160.007" style="fill:none;stroke:#cecece;stroke-width:10.67px;stroke-linejoin:miter;stroke-miterlimit:4;" /><circle cx="256" cy="256" r="117.338" style="fill:none;stroke:#cdcdcd;stroke-width:8.54px;stroke-linejoin:miter;stroke-miterlimit:4;" /><path d="M304.417,248.233l34.514,-8.932" style="fill:none;fill-rule:nonzero;stroke:#8e8e8e;stroke-opacity:0.75;stroke-width:5.9px;stroke-linejoin:miter;stroke-miterlimit:4;" /><path d="M351.631,297.241l17.709,28.06" style="fill:none;fill-rule:nonzero;stroke:#8e8e8e;stroke-opacity:0.75;stroke-width:5.09px;stroke-linejoin:miter;stroke-miterlimit:4;" /><path d="M264.15,357.663c-20.526,1.512 -20.82,18.617 -16.3,39.433" style="fill:none;fill-rule:nonzero;stroke:#8e8e8e;stroke-opacity:0.75;stroke-width:6.4px;stroke-linejoin:miter;stroke-miterlimit:4;" /><path d="M191.558,352.279l-25.463,17.439" style="fill:none;fill-rule:nonzero;stroke:#8e8e8e;stroke-opacity:0.75;stroke-width:6.3px;stroke-linejoin:miter;stroke-miterlimit:4;" /><path d="M160.126,325.301c-6.368,-8.254 -23.921,-13.089 -42.696,10.702" style="fill:none;fill-rule:nonzero;stroke:#8e8e8e;stroke-opacity:0.75;stroke-width:6.4px;stroke-linejoin:miter;stroke-miterlimit:4;" /><path d="M156.392,252.679l-39.565,-15.975" style="fill:none;fill-rule:nonzero;stroke:#8e8e8e;stroke-opacity:0.75;stroke-width:6.4px;stroke-linejoin:miter;stroke-miterlimit:4;" /><path d="M189.695,204.411l-4.849,-27.112" style="fill:none;fill-rule:nonzero;stroke:#8e8e8e;stroke-opacity:0.75;stroke-width:6.9px;stroke-linejoin:miter;stroke-miterlimit:4;" /><path d="M256,127.11l0,-31.117" style="fill:none;fill-rule:nonzero;stroke:#8e8e8e;stroke-opacity:0.75;stroke-width:5.6px;stroke-linejoin:miter;stroke-miterlimit:4;" /><path d="M320.991,175.693l-1.477,-31.299" style="fill:none;fill-rule:nonzero;stroke:#8e8e8e;stroke-opacity:0.75;stroke-width:6.3px;stroke-linejoin:miter;stroke-miterlimit:4;" /><path d="M351.631,210.311c-0,-0 3.614,-32.33 8.854,-35.355c6.159,-3.555 34.085,1.041 34.085,1.041" style="fill:none;fill-rule:nonzero;stroke:#8e8e8e;stroke-opacity:0.75;stroke-width:6.4px;stroke-linejoin:miter;stroke-miterlimit:4;" /><path d="M369.34,286.369l41.214,11.044" style="fill:none;fill-rule:nonzero;stroke:#8e8e8e;stroke-opacity:0.7;stroke-width:4.27px;stroke-linejoin:miter;stroke-miterlimit:4;" /><path d="M338.971,338.971l30.171,30.171" style="fill:none;fill-rule:nonzero;stroke:#8e8e8e;stroke-opacity:0.7;stroke-width:4.27px;stroke-linejoin:miter;stroke-miterlimit:4;" /><path d="M286.369,369.34l11.044,41.214" style="fill:none;fill-rule:nonzero;stroke:#8e8e8e;stroke-opacity:0.7;stroke-width:4.27px;stroke-linejoin:miter;stroke-miterlimit:4;" /><path d="M225.631,369.34l-11.044,41.214" style="fill:none;fill-rule:nonzero;stroke:#8e8e8e;stroke-opacity:0.7;stroke-width:4.27px;stroke-linejoin:miter;stroke-miterlimit:4;" /><path d="M173.029,338.971l-30.171,30.171" style="fill:none;fill-rule:nonzero;stroke:#8e8e8e;stroke-opacity:0.7;stroke-width:4.27px;stroke-linejoin:miter;stroke-miterlimit:4;" /><path d="M142.66,286.369l-41.214,11.044" style="fill:none;fill-rule:nonzero;stroke:#8e8e8e;stroke-opacity:0.7;stroke-width:4.27px;stroke-linejoin:miter;stroke-miterlimit:4;" /><path d="M142.66,225.631l-41.214,-11.044" style="fill:none;fill-rule:nonzero;stroke:#8e8e8e;stroke-opacity:0.7;stroke-width:4.27px;stroke-linejoin:miter;stroke-miterlimit:4;" /><path d="M173.029,173.029l-30.171,-30.171" style="fill:none;fill-rule:nonzero;stroke:#8e8e8e;stroke-opacity:0.7;stroke-width:4.27px;stroke-linejoin:miter;stroke-miterlimit:4;" /><path d="M232.767,182.537l19.122,-38.143" style="fill:none;fill-rule:nonzero;stroke:#8e8e8e;stroke-opacity:0.7;stroke-width:4.27px;stroke-linejoin:miter;stroke-miterlimit:4;" /><path d="M286.369,142.66l11.044,-41.214" style="fill:none;fill-rule:nonzero;stroke:#8e8e8e;stroke-opacity:0.7;stroke-width:4.27px;stroke-linejoin:miter;stroke-miterlimit:4;" /><path d="M338.971,173.029l30.171,-30.171" style="fill:none;fill-rule:nonzero;stroke:#8e8e8e;stroke-opacity:0.7;stroke-width:4.27px;stroke-linejoin:miter;stroke-miterlimit:4;" /><path d="M369.34,225.631l41.214,-11.044" style="fill:none;fill-rule:nonzero;stroke:#8e8e8e;stroke-opacity:0.7;stroke-width:4.27px;stroke-linejoin:miter;stroke-miterlimit:4;" /></g></svg>