<svg xmlns="http://www.w3.org/2000/svg" width="512" height="512" viewBox="0 0 512 512" version="1.1" xml:space="preserve" style="fill-rule:evenodd;clip-rule:evenodd;stroke-linejoin:round;stroke-miterlimit:2;"><defs><radialGradient id="_Radial1" cx="0" cy="0" r="1" gradientUnits="userSpaceOnUse" gradientTransform="matrix(79.25,0,0,79.25,255.25,251.25)"><stop offset="0" style="stop-color:#d5ff99;stop-opacity:1" /><stop offset="0.55" style="stop-color:#89a315;stop-opacity:1" /><stop offset="1" style="stop-color:#4a5a00;stop-opacity:1" /></radialGradient></defs><g transform="matrix(0.91464078 0 0 0.91464078 21.85196117 21.85196117)"><rect fill="#000" x="0" y="0" width="512" height="512" style="stroke:#939598;stroke-width:3px;" /><path d="M308.3,258.7l25.7,29.8l-8.3,18l-39.5,8.5l-15.4,15.5l-26.2,-2.5l-15.5,-27.4l-35.1,3.2l-13.6,-26.4l-3.9,-23.6l12.4,-18.1l4.4,-40.1l14.1,-9.5l38.6,4.4l19.3,-18.5l24.8,18.6l17.7,15l6.3,28l-5.8,25.1Z" style="fill:url(#_Radial1);fill-rule:nonzero;stroke:#3b4d00;stroke-opacity:0.95;stroke-width:10px;stroke-linejoin:miter;stroke-miterlimit:4;" /><circle cx="257.7" cy="249.7" r="6.5" style="fill:#4a5a00;stroke:#273000;stroke-opacity:0.85;stroke-width:3px;stroke-linejoin:miter;stroke-miterlimit:4;" /><circle cx="226.4" cy="254.7" r="9.4" style="fill:#4a5a00;stroke:#273000;stroke-opacity:0.85;stroke-width:3px;stroke-linejoin:miter;stroke-miterlimit:4;" /><circle cx="265.7" cy="272.6" r="8" style="fill:#4a5a00;stroke:#273000;stroke-opacity:0.85;stroke-width:3px;stroke-linejoin:miter;stroke-miterlimit:4;" /><circle cx="219.8" cy="234" r="10.5" style="fill:#4a5a00;stroke:#273000;stroke-opacity:0.85;stroke-width:3px;stroke-linejoin:miter;stroke-miterlimit:4;" /><circle cx="249.7" cy="261.2" r="9.7" style="fill:#4a5a00;stroke:#273000;stroke-opacity:0.85;stroke-width:3px;stroke-linejoin:miter;stroke-miterlimit:4;" /><circle cx="276.5" cy="229" r="8.3" style="fill:#4a5a00;stroke:#273000;stroke-opacity:0.85;stroke-width:3px;stroke-linejoin:miter;stroke-miterlimit:4;" /><circle cx="268.2" cy="290.8" r="7" style="fill:#4a5a00;stroke:#273000;stroke-opacity:0.85;stroke-width:3px;stroke-linejoin:miter;stroke-miterlimit:4;" /><circle cx="288" cy="283.9" r="8.7" style="fill:#4a5a00;stroke:#273000;stroke-opacity:0.85;stroke-width:3px;stroke-linejoin:miter;stroke-miterlimit:4;" /><circle cx="260.1" cy="297.8" r="8.1" style="fill:#4a5a00;stroke:#273000;stroke-opacity:0.85;stroke-width:3px;stroke-linejoin:miter;stroke-miterlimit:4;" /><circle cx="239.1" cy="279.8" r="5.7" style="fill:#4a5a00;stroke:#273000;stroke-opacity:0.85;stroke-width:3px;stroke-linejoin:miter;stroke-miterlimit:4;" /><circle cx="273.5" cy="267.6" r="7.7" style="fill:#4a5a00;stroke:#273000;stroke-opacity:0.85;stroke-width:3px;stroke-linejoin:miter;stroke-miterlimit:4;" /><circle cx="291.1" cy="264.7" r="6.1" style="fill:#4a5a00;stroke:#273000;stroke-opacity:0.85;stroke-width:3px;stroke-linejoin:miter;stroke-miterlimit:4;" /><circle cx="406" cy="255.9" r="24.3" style="fill:#89a315;stroke:#4a5a00;stroke-opacity:0.8;stroke-width:6px;stroke-linejoin:miter;stroke-miterlimit:4;" /><circle cx="394.4" cy="313.8" r="25.4" style="fill:#89a315;stroke:#4a5a00;stroke-opacity:0.8;stroke-width:6px;stroke-linejoin:miter;stroke-miterlimit:4;" /><circle cx="371.8" cy="351.3" r="20.3" style="fill:#89a315;stroke:#4a5a00;stroke-opacity:0.8;stroke-width:6px;stroke-linejoin:miter;stroke-miterlimit:4;" /><circle cx="335.4" cy="383.2" r="25.7" style="fill:#89a315;stroke:#4a5a00;stroke-opacity:0.8;stroke-width:6px;stroke-linejoin:miter;stroke-miterlimit:4;" /><circle cx="283.6" cy="403.4" r="21.1" style="fill:#89a315;stroke:#4a5a00;stroke-opacity:0.8;stroke-width:6px;stroke-linejoin:miter;stroke-miterlimit:4;" /><circle cx="236.3" cy="404.7" r="24.1" style="fill:#89a315;stroke:#4a5a00;stroke-opacity:0.8;stroke-width:6px;stroke-linejoin:miter;stroke-miterlimit:4;" /><circle cx="170.3" cy="379.1" r="28.6" style="fill:#89a315;stroke:#4a5a00;stroke-opacity:0.8;stroke-width:6px;stroke-linejoin:miter;stroke-miterlimit:4;" /><circle cx="150.675" cy="310.849" r="26.5" style="fill:#89a315;stroke:#4a5a00;stroke-opacity:0.8;stroke-width:6px;stroke-linejoin:miter;stroke-miterlimit:4;" /><circle cx="106.6" cy="269.8" r="22.8" style="fill:#89a315;stroke:#4a5a00;stroke-opacity:0.8;stroke-width:6px;stroke-linejoin:miter;stroke-miterlimit:4;" /><circle cx="115.7" cy="202.9" r="20" style="fill:#89a315;stroke:#4a5a00;stroke-opacity:0.8;stroke-width:6px;stroke-linejoin:miter;stroke-miterlimit:4;" /><circle cx="226.5" cy="108.9" r="23.2" style="fill:#89a315;stroke:#4a5a00;stroke-opacity:0.8;stroke-width:6px;stroke-linejoin:miter;stroke-miterlimit:4;" /><circle cx="294.7" cy="111.1" r="30.3" style="fill:#89a315;stroke:#4a5a00;stroke-opacity:0.8;stroke-width:6px;stroke-linejoin:miter;stroke-miterlimit:4;" /><circle cx="324.2" cy="122.4" r="25.1" style="fill:#89a315;stroke:#4a5a00;stroke-opacity:0.8;stroke-width:6px;stroke-linejoin:miter;stroke-miterlimit:4;" /><circle cx="364.6" cy="152.5" r="29.2" style="fill:#89a315;stroke:#4a5a00;stroke-opacity:0.8;stroke-width:6px;stroke-linejoin:miter;stroke-miterlimit:4;" /><circle cx="396.5" cy="203.3" r="29.2" style="fill:#89a315;stroke:#4a5a00;stroke-opacity:0.8;stroke-width:6px;stroke-linejoin:miter;stroke-miterlimit:4;" /><path d="M236,166l0,-30c16.667,-13.333 25,-23.333 25,-30c-16.667,-13.333 -25,-23.333 -25,-30c16.667,-13.333 25,-23.333 25,-30c-16.667,-13.333 -25,-23.333 -25,-30" style="fill:none;fill-rule:nonzero;stroke:#b5d867;stroke-opacity:0.65;stroke-width:8px;stroke-linecap:round;stroke-linejoin:miter;stroke-miterlimit:4;" /><path d="M403.964,218.715l0,-30c16.667,-13.334 25,-23.334 25,-30c-16.667,-13.334 -25,-23.334 -25,-30c16.667,-13.334 25,-23.334 25,-30c-16.667,-13.334 -25,-23.334 -25,-30" style="fill:none;fill-rule:nonzero;stroke:#b5d867;stroke-opacity:0.65;stroke-width:8px;stroke-linecap:round;stroke-linejoin:miter;stroke-miterlimit:4;" /></g></svg>