<svg xmlns="http://www.w3.org/2000/svg" width="512" height="512" viewBox="0 0 512 512" version="1.1" xml:space="preserve" style="fill-rule:evenodd;clip-rule:evenodd;stroke-linejoin:round;stroke-miterlimit:2;"><g transform="matrix(0.91464078 0 0 0.91464078 21.85196117 21.85196117)"><rect fill="#000" x="0" y="0" width="512" height="512" style="stroke:#939598;stroke-width:3px;" /><circle cx="256" cy="256" r="70" style="fill:#4c56ff;stroke:#a7e4ff;stroke-opacity:0.95;stroke-width:6px;stroke-linejoin:miter;stroke-miterlimit:4;" /><path d="M231.716,238.595c-8.831,-13.246 8.83,-30.907 26.492,-26.492c13.246,4.416 17.661,17.661 8.83,30.907c-8.83,8.831 -22.077,8.831 -35.322,-4.415Z" style="fill:#4fa65b;fill-rule:nonzero;stroke:#2e6f3a;stroke-opacity:0.6;stroke-width:0.88px;stroke-linejoin:miter;stroke-miterlimit:4;" /><path d="M280.284,278.333c13.246,-4.415 17.661,8.83 8.831,17.661c-8.831,8.831 -22.077,4.415 -17.661,-8.831l8.83,-8.83Z" style="fill:#4fa65b;fill-rule:nonzero;stroke:#2e6f3a;stroke-opacity:0.6;stroke-width:0.88px;stroke-linejoin:miter;stroke-miterlimit:4;" /><path d="M227.3,273.918c-13.245,4.415 -17.661,17.661 -4.415,22.076c13.246,4.415 22.076,-4.415 17.661,-13.246l-13.246,-8.83Z" style="fill:#4fa65b;fill-rule:nonzero;stroke:#2e6f3a;stroke-opacity:0.6;stroke-width:0.88px;stroke-linejoin:miter;stroke-miterlimit:4;" /><path d="M209.639,247.425c17.661,-4.415 30.907,-2.207 48.569,-4.415c17.661,-2.207 30.907,0 44.153,4.415" style="fill:none;fill-rule:nonzero;stroke:#dce4ff;stroke-opacity:0.6;stroke-width:5.3px;stroke-linecap:round;stroke-linejoin:miter;stroke-miterlimit:4;stroke-dasharray:5.3,5.3;" /><path d="M222.885,265.087c17.661,-2.208 35.323,0 52.984,-2.208c13.246,-1.324 22.076,1.325 26.492,3.974" style="fill:none;fill-rule:nonzero;stroke:#d6e4ff;stroke-opacity:0.66;stroke-width:5.3px;stroke-linecap:round;stroke-linejoin:miter;stroke-miterlimit:4;stroke-dasharray:5.3,5.3;" /></g></svg>