<svg xmlns="http://www.w3.org/2000/svg" width="512" height="512" viewBox="0 0 512 512" version="1.1" xml:space="preserve" style="fill-rule:evenodd;clip-rule:evenodd;stroke-linejoin:round;stroke-miterlimit:2;"><g transform="matrix(0.91464078 0 0 0.91464078 21.85196117 21.85196117)"><rect fill="#000" x="0" y="0" width="512" height="512" style="stroke:#949698;stroke-width:3px;" /><circle cx="256" cy="256" r="102.848" style="fill:none;stroke:#cbcbcb;stroke-opacity:0.35;stroke-width:13.71px;stroke-linejoin:miter;stroke-miterlimit:4;stroke-dasharray:27.43,22.86;" /><circle cx="256" cy="256" r="159.986" style="fill:none;stroke:#cbcbcb;stroke-opacity:0.7;stroke-width:13.71px;stroke-linejoin:miter;stroke-miterlimit:4;stroke-dasharray:27.43,22.86;" /><path d="M313.138,256l79.993,0" style="fill:none;fill-rule:nonzero;stroke:#d9d9d9;stroke-opacity:0.8;stroke-width:11.43px;stroke-linecap:round;stroke-linejoin:miter;stroke-miterlimit:4;stroke-dasharray:20.57,18.28;" /><path d="M393.131,256l-27.426,13.713l-0,-27.426l27.426,13.713Z" style="fill:#d9d9d9;fill-opacity:0.85;fill-rule:nonzero;" /><path d="M256,313.138l0,79.993" style="fill:none;fill-rule:nonzero;stroke:#d9d9d9;stroke-opacity:0.8;stroke-width:11.43px;stroke-linecap:round;stroke-linejoin:miter;stroke-miterlimit:4;stroke-dasharray:20.57,18.28;" /><path d="M256,393.131l-13.713,-27.426l27.426,-0l-13.713,27.426Z" style="fill:#d9d9d9;fill-opacity:0.85;fill-rule:nonzero;" /><path d="M198.862,256l-79.993,0" style="fill:none;fill-rule:nonzero;stroke:#d9d9d9;stroke-opacity:0.8;stroke-width:11.43px;stroke-linecap:round;stroke-linejoin:miter;stroke-miterlimit:4;stroke-dasharray:20.57,18.28;" /><path d="M118.869,256l27.426,-13.713l0,27.426l-27.426,-13.713Z" style="fill:#d9d9d9;fill-opacity:0.85;fill-rule:nonzero;" /><path d="M256,198.862l0,-79.993" style="fill:none;fill-rule:nonzero;stroke:#d9d9d9;stroke-opacity:0.8;stroke-width:11.43px;stroke-linecap:round;stroke-linejoin:miter;stroke-miterlimit:4;stroke-dasharray:20.57,18.28;" /><path d="M256,118.869l13.713,27.426l-27.426,0l13.713,-27.426Z" style="fill:#d9d9d9;fill-opacity:0.85;fill-rule:nonzero;" /></g></svg>