<svg xmlns="http://www.w3.org/2000/svg" width="512" height="512" viewBox="0 0 512 512" version="1.1" xml:space="preserve" style="fill-rule:evenodd;clip-rule:evenodd;stroke-linejoin:round;stroke-miterlimit:2;"><g transform="matrix(0.91464078 0 0 0.91464078 21.85196117 21.85196117)"><rect fill="#000" x="0" y="0" width="512" height="512" style="stroke:#929497;stroke-width:3px;" /><path d="M376,258.6c-0.176,7.977 -1.148,15.916 -2.9,23.7" style="fill:none;fill-rule:nonzero;stroke:#ff3c3c;stroke-opacity:0.8;stroke-width:10px;stroke-linecap:round;stroke-linejoin:miter;stroke-miterlimit:4;" /><path d="M366.5,302.8c-3.435,8.152 -7.762,15.899 -12.9,23.1" style="fill:none;fill-rule:nonzero;stroke:#ff3c3c;stroke-opacity:0.8;stroke-width:10px;stroke-linecap:round;stroke-linejoin:miter;stroke-miterlimit:4;" /><path d="M344.6,336.9c-5.915,6.469 -12.521,12.27 -19.7,17.3" style="fill:none;fill-rule:nonzero;stroke:#ff3c3c;stroke-opacity:0.8;stroke-width:10px;stroke-linecap:round;stroke-linejoin:miter;stroke-miterlimit:4;" /><path d="M324.3,354.6c-5.599,3.897 -11.521,7.309 -17.7,10.2" style="fill:none;fill-rule:nonzero;stroke:#ff3c3c;stroke-opacity:0.8;stroke-width:10px;stroke-linecap:round;stroke-linejoin:miter;stroke-miterlimit:4;" /><path d="M267.6,375.4c-7.546,0.751 -15.147,0.784 -22.7,0.1" style="fill:none;fill-rule:nonzero;stroke:#ff3c3c;stroke-opacity:0.8;stroke-width:10px;stroke-linecap:round;stroke-linejoin:miter;stroke-miterlimit:4;" /><path d="M227,372.4c-5.204,-1.29 -10.315,-2.927 -15.3,-4.9" style="fill:none;fill-rule:nonzero;stroke:#ff3c3c;stroke-opacity:0.8;stroke-width:10px;stroke-linecap:round;stroke-linejoin:miter;stroke-miterlimit:4;" /><path d="M196.6,360.2c-5.172,-2.929 -10.119,-6.238 -14.8,-9.9" style="fill:none;fill-rule:nonzero;stroke:#ff3c3c;stroke-opacity:0.8;stroke-width:10px;stroke-linecap:round;stroke-linejoin:miter;stroke-miterlimit:4;" /><path d="M163.5,332.4c-4.638,-5.614 -8.755,-11.639 -12.3,-18" style="fill:none;fill-rule:nonzero;stroke:#ff3c3c;stroke-opacity:0.8;stroke-width:10px;stroke-linecap:round;stroke-linejoin:miter;stroke-miterlimit:4;" /><path d="M147.1,306.5c-2.425,-5.279 -4.464,-10.726 -6.1,-16.3" style="fill:none;fill-rule:nonzero;stroke:#ff3c3c;stroke-opacity:0.8;stroke-width:10px;stroke-linecap:round;stroke-linejoin:miter;stroke-miterlimit:4;" /><path d="M136.1,260.6c-0.346,-8.706 0.258,-17.424 1.8,-26" style="fill:none;fill-rule:nonzero;stroke:#ff3c3c;stroke-opacity:0.8;stroke-width:10px;stroke-linecap:round;stroke-linejoin:miter;stroke-miterlimit:4;" /><path d="M145.3,209.8c2.119,-5.132 4.592,-10.111 7.4,-14.9" style="fill:none;fill-rule:nonzero;stroke:#ff3c3c;stroke-opacity:0.8;stroke-width:10px;stroke-linecap:round;stroke-linejoin:miter;stroke-miterlimit:4;" /><path d="M168.2,174.2c3.74,-4.003 7.749,-7.745 12,-11.2" style="fill:none;fill-rule:nonzero;stroke:#ff3c3c;stroke-opacity:0.8;stroke-width:10px;stroke-linecap:round;stroke-linejoin:miter;stroke-miterlimit:4;" /><path d="M198.1,150.9c4.771,-2.633 9.716,-4.939 14.8,-6.9" style="fill:none;fill-rule:nonzero;stroke:#ff3c3c;stroke-opacity:0.8;stroke-width:10px;stroke-linecap:round;stroke-linejoin:miter;stroke-miterlimit:4;" /><path d="M225,140.1c8.234,-2.225 16.682,-3.566 25.2,-4" style="fill:none;fill-rule:nonzero;stroke:#ff3c3c;stroke-opacity:0.8;stroke-width:10px;stroke-linecap:round;stroke-linejoin:miter;stroke-miterlimit:4;" /><path d="M270.8,136.9c5.741,0.722 11.423,1.858 17,3.4" style="fill:none;fill-rule:nonzero;stroke:#ff3c3c;stroke-opacity:0.8;stroke-width:10px;stroke-linecap:round;stroke-linejoin:miter;stroke-miterlimit:4;" /><path d="M324.5,157.5c7.014,4.896 13.484,10.528 19.3,16.8" style="fill:none;fill-rule:nonzero;stroke:#ff3c3c;stroke-opacity:0.8;stroke-width:10px;stroke-linecap:round;stroke-linejoin:miter;stroke-miterlimit:4;" /><path d="M345,175.5c5.992,6.63 11.224,13.908 15.6,21.7" style="fill:none;fill-rule:nonzero;stroke:#ff3c3c;stroke-opacity:0.8;stroke-width:10px;stroke-linecap:round;stroke-linejoin:miter;stroke-miterlimit:4;" /><path d="M369,215.7c2.623,7.298 4.532,14.833 5.7,22.5" style="fill:none;fill-rule:nonzero;stroke:#ff3c3c;stroke-opacity:0.8;stroke-width:10px;stroke-linecap:round;stroke-linejoin:miter;stroke-miterlimit:4;" /><path d="M363.857,250.438l-39.947,2.06" style="fill:none;fill-rule:nonzero;stroke:#ff3c3c;stroke-opacity:0.31;stroke-width:10px;stroke-linecap:round;stroke-linejoin:miter;stroke-miterlimit:4;" /><path d="M345.102,317.032l-33.001,-22.605" style="fill:none;fill-rule:nonzero;stroke:#ff3c3c;stroke-opacity:0.3;stroke-width:10px;stroke-linecap:round;stroke-linejoin:miter;stroke-miterlimit:4;" /><path d="M306.859,351.275l-18.837,-35.287" style="fill:none;fill-rule:nonzero;stroke:#ff3c3c;stroke-opacity:0.31;stroke-width:10px;stroke-linecap:round;stroke-linejoin:miter;stroke-miterlimit:4;" /><path d="M247.215,363.642l3.254,-39.867" style="fill:none;fill-rule:nonzero;stroke:#ff3c3c;stroke-opacity:0.3;stroke-width:10px;stroke-linecap:round;stroke-linejoin:miter;stroke-miterlimit:4;" /><path d="M195.705,345.602l22.331,-33.186" style="fill:none;fill-rule:nonzero;stroke:#ff3c3c;stroke-opacity:0.29;stroke-width:10px;stroke-linecap:round;stroke-linejoin:miter;stroke-miterlimit:4;" /><path d="M164.423,313.251l33.917,-21.204" style="fill:none;fill-rule:nonzero;stroke:#ff3c3c;stroke-opacity:0.3;stroke-width:10px;stroke-linecap:round;stroke-linejoin:miter;stroke-miterlimit:4;" /><path d="M148.032,258.616l39.988,-0.969" style="fill:none;fill-rule:nonzero;stroke:#ff3c3c;stroke-opacity:0.3;stroke-width:10px;stroke-linecap:round;stroke-linejoin:miter;stroke-miterlimit:4;" /><path d="M159.482,207.542l35.747,17.947" style="fill:none;fill-rule:nonzero;stroke:#ff3c3c;stroke-opacity:0.3;stroke-width:10px;stroke-linecap:round;stroke-linejoin:miter;stroke-miterlimit:4;" /><path d="M196.323,165.985l22.103,33.339" style="fill:none;fill-rule:nonzero;stroke:#ff3c3c;stroke-opacity:0.3;stroke-width:10px;stroke-linecap:round;stroke-linejoin:miter;stroke-miterlimit:4;" /><path d="M247.811,148.311l3.033,39.885" style="fill:none;fill-rule:nonzero;stroke:#ff3c3c;stroke-opacity:0.3;stroke-width:10px;stroke-linecap:round;stroke-linejoin:miter;stroke-miterlimit:4;" /><path d="M306.726,160.654l-18.788,35.313" style="fill:none;fill-rule:nonzero;stroke:#ff3c3c;stroke-opacity:0.3;stroke-width:10px;stroke-linecap:round;stroke-linejoin:miter;stroke-miterlimit:4;" /><path d="M350.487,203.692l-34.995,19.373" style="fill:none;fill-rule:nonzero;stroke:#ff3c3c;stroke-opacity:0.3;stroke-width:10px;stroke-linecap:round;stroke-linejoin:miter;stroke-miterlimit:4;" /></g></svg>