<svg xmlns="http://www.w3.org/2000/svg" viewBox="0 0 512 512" width="512" height="512" version="1.1">
    <g transform="matrix(0.91464078 0 0 0.91464078 21.85196117 21.85196117)"><rect stroke-width="3" stroke="#949698" stroke-linejoin="round" fill="#000" width="512" height="512" fill-rule="evenodd" stroke-miterlimit="2" />
    <!-- Node A (upper-left cluster) -->
    <circle cx="120" cy="120" r="38" fill="#dfe7ff" opacity="0.13" />
    <circle cx="120" cy="120" r="24" fill="#dfe7ff" opacity="0.22" />
    <circle cx="120" cy="120" r="13" fill="#e8eeff" opacity="0.85" />
    <circle cx="112" cy="114" r="4.5" fill="#fff" opacity="0.95" />
    <circle cx="130" cy="125" r="3.8" fill="#ffe2a6" opacity="0.9" />
    <circle cx="118" cy="130" r="3" fill="#dfe7ff" opacity="0.8" />
    <circle cx="108" cy="126" r="2.5" fill="#fff8ea" opacity="0.7" />
    <circle cx="128" cy="112" r="2.8" fill="#fff2d7" opacity="0.85" />
    <!-- Node B (lower-right cluster) -->
    <circle cx="392" cy="392" r="42" fill="#dfe7ff" opacity="0.13" />
    <circle cx="392" cy="392" r="26" fill="#dfe7ff" opacity="0.22" />
    <circle cx="392" cy="392" r="14" fill="#e8eeff" opacity="0.85" />
    <circle cx="384" cy="386" r="4.8" fill="#fff" opacity="0.95" />
    <circle cx="400" cy="398" r="4" fill="#ffe2a6" opacity="0.9" />
    <circle cx="390" cy="402" r="3.2" fill="#dfe7ff" opacity="0.8" />
    <circle cx="380" cy="396" r="2.6" fill="#fff8ea" opacity="0.7" />
    <circle cx="402" cy="384" r="3" fill="#fff2d7" opacity="0.85" />
    <circle cx="396" cy="380" r="2.2" fill="#fff" opacity="0.6" />
    <!-- Filament strand: stream of particles flowing between nodes -->
    <!-- Core flow -->
    <circle cx="152" cy="148" r="3.5" fill="#dfe7ff" opacity="0.7" />
    <circle cx="172" cy="168" r="3.0" fill="#c8d8f8" opacity="0.6" />
    <circle cx="190" cy="186" r="2.8" fill="#dfe7ff" opacity="0.55" />
    <circle cx="210" cy="205" r="2.5" fill="#b8c8e8" opacity="0.5" />
    <circle cx="228" cy="224" r="2.3" fill="#dfe7ff" opacity="0.45" />
    <circle cx="248" cy="244" r="2.0" fill="#c8d8f8" opacity="0.4" />
    <circle cx="265" cy="261" r="2.2" fill="#dfe7ff" opacity="0.42" />
    <circle cx="284" cy="280" r="2.5" fill="#c8d8f8" opacity="0.48" />
    <circle cx="302" cy="298" r="2.7" fill="#dfe7ff" opacity="0.52" />
    <circle cx="320" cy="316" r="2.8" fill="#b8c8e8" opacity="0.55" />
    <circle cx="338" cy="334" r="3.0" fill="#dfe7ff" opacity="0.6" />
    <circle cx="356" cy="352" r="3.2" fill="#c8d8f8" opacity="0.65" />
    <circle cx="372" cy="370" r="3.5" fill="#dfe7ff" opacity="0.7" />
    <!-- Wispy edges of filament - offset particles -->
    <circle cx="160" cy="156" r="1.8" fill="#dfe7ff" opacity="0.35" />
    <circle cx="145" cy="155" r="1.5" fill="#b8c8e8" opacity="0.25" />
    <circle cx="178" cy="174" r="1.6" fill="#dfe7ff" opacity="0.3" />
    <circle cx="198" cy="198" r="1.4" fill="#c8d8f8" opacity="0.28" />
    <circle cx="185" cy="194" r="1.8" fill="#b8c8e8" opacity="0.22" />
    <circle cx="220" cy="212" r="1.3" fill="#dfe7ff" opacity="0.25" />
    <circle cx="215" cy="220" r="1.6" fill="#c8d8f8" opacity="0.2" />
    <circle cx="240" cy="237" r="1.5" fill="#dfe7ff" opacity="0.22" />
    <circle cx="254" cy="248" r="1.3" fill="#b8c8e8" opacity="0.2" />
    <circle cx="270" cy="270" r="1.6" fill="#dfe7ff" opacity="0.24" />
    <circle cx="275" cy="265" r="1.4" fill="#c8d8f8" opacity="0.2" />
    <circle cx="295" cy="290" r="1.5" fill="#dfe7ff" opacity="0.26" />
    <circle cx="290" cy="296" r="1.7" fill="#b8c8e8" opacity="0.22" />
    <circle cx="312" cy="308" r="1.4" fill="#dfe7ff" opacity="0.28" />
    <circle cx="325" cy="324" r="1.6" fill="#c8d8f8" opacity="0.3" />
    <circle cx="330" cy="318" r="1.3" fill="#b8c8e8" opacity="0.25" />
    <circle cx="348" cy="342" r="1.7" fill="#dfe7ff" opacity="0.32" />
    <circle cx="345" cy="348" r="1.5" fill="#c8d8f8" opacity="0.28" />
    <circle cx="363" cy="360" r="1.6" fill="#dfe7ff" opacity="0.35" />
    <circle cx="368" cy="365" r="1.4" fill="#b8c8e8" opacity="0.3" />
    <!-- Sparse background field particles -->
    <circle cx="60" cy="300" r="1.2" fill="#cdcdcd" opacity="0.15" />
    <circle cx="420" cy="80" r="1.0" fill="#cdcdcd" opacity="0.12" />
    <circle cx="450" cy="200" r="1.1" fill="#cdcdcd" opacity="0.1" />
    <circle cx="80" cy="440" r="1.3" fill="#cdcdcd" opacity="0.12" />
    <circle cx="300" cy="60" r="1.0" fill="#cdcdcd" opacity="0.1" />
    <circle cx="470" cy="460" r="1.1" fill="#cdcdcd" opacity="0.08" />
    <circle cx="50" cy="50" r="1.0" fill="#cdcdcd" opacity="0.08" />
    </g>
</svg>
