<svg xmlns="http://www.w3.org/2000/svg" viewBox="0 0 512 512" width="512" height="512" version="1.1">
    <g transform="matrix(0.91464078 0 0 0.91464078 21.85196117 21.85196117)"><rect stroke-width="3" stroke="#949698" stroke-linejoin="round" fill="#000" width="512" height="512" fill-rule="evenodd" stroke-miterlimit="2" />
    <!-- Diffuse ICM halo (intracluster medium) -->
    <circle cx="256" cy="256" r="180" fill="#dfe7ff" opacity="0.04" />
    <circle cx="256" cy="256" r="140" fill="#dfe7ff" opacity="0.06" />
    <circle cx="256" cy="256" r="100" fill="#e8eeff" opacity="0.08" />
    <!-- Central dominant elliptical galaxy (cD galaxy) -->
    <ellipse cx="256" cy="256" rx="28" ry="20" fill="#ffe2a6" opacity="0.85" />
    <ellipse cx="256" cy="256" rx="18" ry="13" fill="#fff2d7" opacity="0.9" />
    <circle cx="256" cy="256" r="6" fill="#fff8ea" opacity="0.95" />
    <!-- Major member galaxies - ellipticals (warm tones) -->
    <ellipse cx="210" cy="210" rx="14" ry="10" fill="#ffe2a6" opacity="0.7" />
    <ellipse cx="210" cy="210" rx="7" ry="5" fill="#fff2d7" opacity="0.8" />
    <ellipse cx="310" cy="220" rx="12" ry="16" fill="#ffcc40" opacity="0.6" />
    <ellipse cx="310" cy="220" rx="6" ry="9" fill="#fff7bf" opacity="0.75" />
    <ellipse cx="230" cy="310" rx="15" ry="9" fill="#ffe2a6" opacity="0.65" />
    <ellipse cx="230" cy="310" rx="8" ry="5" fill="#fff8ea" opacity="0.75" />
    <!-- Spiral member galaxies (blue-white tones) -->
    <ellipse cx="300" cy="290" rx="13" ry="7" transform="rotate(-30 300 290)" fill="#dfe7ff" opacity="0.65" />
    <ellipse cx="300" cy="290" rx="7" ry="4" transform="rotate(-30 300 290)" fill="#e8eeff" opacity="0.8" />
    <ellipse cx="190" cy="275" rx="11" ry="6" transform="rotate(20 190 275)" fill="#dfe7ff" opacity="0.6" />
    <ellipse cx="190" cy="275" rx="6" ry="3.5" transform="rotate(20 190 275)" fill="#fff" opacity="0.7" />
    <ellipse cx="280" cy="185" rx="10" ry="6" transform="rotate(-50 280 185)" fill="#c8d8f8" opacity="0.55" />
    <ellipse cx="280" cy="185" rx="5" ry="3" transform="rotate(-50 280 185)" fill="#e8eeff" opacity="0.7" />
    <!-- Smaller/fainter member galaxies scattered through cluster -->
    <ellipse cx="340" cy="260" rx="7" ry="5" fill="#ffe2a6" opacity="0.45" />
    <ellipse cx="175" cy="240" rx="6" ry="8" fill="#dfe7ff" opacity="0.4" />
    <ellipse cx="260" cy="340" rx="8" ry="5" transform="rotate(15 260 340)" fill="#fff2d7" opacity="0.45" />
    <ellipse cx="250" cy="180" rx="6" ry="4" fill="#dfe7ff" opacity="0.4" />
    <ellipse cx="320" cy="320" rx="5" ry="7" fill="#ffe2a6" opacity="0.35" />
    <ellipse cx="200" cy="330" rx="7" ry="4" transform="rotate(-25 200 330)" fill="#c8d8f8" opacity="0.35" />
    <ellipse cx="330" cy="190" rx="5" ry="4" fill="#fff2d7" opacity="0.35" />
    <ellipse cx="185" cy="195" rx="5" ry="3.5" transform="rotate(40 185 195)" fill="#dfe7ff" opacity="0.3" />
    <!-- Faint outermost galaxies at cluster edges -->
    <ellipse cx="150" cy="160" rx="4" ry="3" fill="#dfe7ff" opacity="0.2" />
    <ellipse cx="370" cy="340" rx="4.5" ry="3" fill="#ffe2a6" opacity="0.2" />
    <ellipse cx="360" cy="150" rx="3.5" ry="5" fill="#c8d8f8" opacity="0.18" />
    <ellipse cx="140" cy="350" rx="4" ry="3" transform="rotate(-15 140 350)" fill="#fff2d7" opacity="0.18" />
    <ellipse cx="380" cy="260" rx="3.5" ry="2.5" fill="#dfe7ff" opacity="0.15" />
    <ellipse cx="130" cy="280" rx="3" ry="4" fill="#ffe2a6" opacity="0.15" />
    <ellipse cx="270" cy="140" rx="3.5" ry="2.5" fill="#dfe7ff" opacity="0.15" />
    <ellipse cx="290" cy="370" rx="4" ry="2.5" fill="#c8d8f8" opacity="0.15" />
    <!-- Sparse background field -->
    <circle cx="60" cy="60" r="1.2" fill="#cdcdcd" opacity="0.1" />
    <circle cx="450" cy="60" r="1.0" fill="#cdcdcd" opacity="0.08" />
    <circle cx="60" cy="450" r="1.1" fill="#cdcdcd" opacity="0.08" />
    <circle cx="460" cy="440" r="1.0" fill="#cdcdcd" opacity="0.08" />
    <circle cx="480" cy="150" r="0.9" fill="#cdcdcd" opacity="0.07" />
    <circle cx="40" cy="400" r="1.0" fill="#cdcdcd" opacity="0.07" />
    </g>
</svg>
