<svg xmlns="http://www.w3.org/2000/svg" viewBox="0 0 512 512" stroke="#e6e6e6" fill="none" width="512" height="512" clip-rule="evenodd" fill-rule="evenodd" version="1.1">
    <defs stroke="none" stroke-linejoin="round" fill="#000" stroke-miterlimit="2">
        <radialGradient id="gate__Radial1" gradientTransform="matrix(18.5975, 0, 0, 18.5975, 256, 57.707)" gradientUnits="userSpaceOnUse">
            <stop offset="0" stop-color="#d8d8d8" stop-opacity="1" />
            <stop offset="1" stop-color="#a2a2a2" stop-opacity="1" />
        </radialGradient>
    </defs>
<g transform="matrix(0.91464078 0 0 0.91464078 21.85196117 21.85196117)"><rect stroke-width="3" stroke="#929497" stroke-linejoin="round" fill="#000" width="512" height="512" stroke-miterlimit="2" />
    <path stroke-width="2.93" stroke="#dcdcdc" stroke-opacity="0.25" d="M177.875 276.472c-8e-3-43.119 34.992-78.132 78.11-78.14 43.119-8e-3 78.132 34.992 78.14 78.11s-34.992 78.132-78.11 78.14c-43.119 8e-3-78.132-34.992-78.14-78.11z" stroke-dasharray="9.77 7.81" />
    <path stroke-width="4.88" d="M216.938 276.464l39.055-39.069 39.07 39.054-39.056 39.071-39.07-39.056z" />
    <g stroke-width="3.91" stroke-linejoin="round">
        <path d="M256.04 487.395l-5e-3-24.414" />
        <path d="M256.033 451.262l-5e-3-24.414" />
        <path d="M256.026 415.129l-4e-3-24.414" />
        <path d="M256.019 378.996l-4e-3-24.414" />
    </g>
    <path stroke-width="3.9" stroke-linecap="round" d="M255.999 268.645l-0.04-210.938" stroke-dasharray="3.9 3.9" />
    <circle stroke-width="2.32" stroke="#a2a2a2" stroke-opacity="0.9" fill="url(#gate__Radial1)" cx="256" cy="57.707" r="18.598" />
    </g></svg>