<svg xmlns="http://www.w3.org/2000/svg" viewBox="0 0 512 512" stroke-linejoin="round" width="512" height="512" clip-rule="evenodd" fill-rule="evenodd" stroke-miterlimit="2" version="1.1">
    <g transform="matrix(0.91464078 0 0 0.91464078 21.85196117 21.85196117)"><rect fill="#000" stroke-width="3" stroke="#949698" width="512" height="512" />
    <g stroke-width="7.5" stroke="#fff" stroke-linecap="round" fill="none" stroke-miterlimit="4">
        <path d="M117.934 203.065c-2.121-7e-3-3.53-1.426-3.523-3.548 4e-3-1.414 1.426-3.53 3.547-3.523 2.122 7e-3 3.529 2.133 3.524 3.547-7e-3 2.122-1.426 3.531-3.548 3.524z" />
        <path d="M392.61 163.682c-2.122-7e-3-3.531-1.426-3.524-3.548 4e-3-1.414 1.424-2.824 3.545-2.816 1.414 4e-3 2.824 1.423 2.819 2.838-7e-3 2.121-1.426 3.531-2.84 3.526z" />
        <path d="M118.687 235.137v38.188" />
        <path d="M119.029 237.966c-2.121-7e-3-3.531-1.426-3.524-3.548 5e-3-1.414 1.427-3.531 3.548-3.523 1.414 4e-3 2.821 2.131 2.816 3.545-7e-3 2.121-1.426 3.531-2.84 3.526z" />
        <path d="M117.946 161.342v38.187" />
        <path d="M119.134 328.918c-39.028-0.131-70.974-33.693-70.837-74.116 0.138-41.119 32.308-73.768 71.336-73.636 39.725 0.134 71.673 32.998 71.534 74.118-0.136 40.423-32.308 73.768-72.033 73.634z" />
        <path stroke-width="5.5" d="M200.362 254.001h110.316" />
        <path stroke-width="5.5" d="M254.832 271.913v-11.314" />
        <path d="M392.268 161.342v38.187" />
        <path d="M392.319 235.137v38.188" />
        <path d="M392.66 237.966c-2.121-7e-3-3.531-1.426-3.523-3.548 4e-3-1.414 1.426-3.531 3.547-3.523 1.414 4e-3 2.821 2.131 2.817 3.545-7e-3 2.121-1.427 3.531-2.841 3.526z" />
        <path d="M391.67 328.918c-39.028-0.131-70.974-33.693-70.837-74.116 0.138-41.119 32.308-73.768 71.336-73.636 39.725 0.134 71.673 32.998 71.534 74.118-0.136 40.423-32.308 73.768-72.033 73.634z" />
    </g>
</g></svg>