<svg xmlns="http://www.w3.org/2000/svg" width="512" height="512" viewBox="0 0 512 512" version="1.1" xml:space="preserve" style="fill-rule:evenodd;clip-rule:evenodd;stroke-linejoin:round;stroke-miterlimit:2;"><g transform="matrix(0.91464078 0 0 0.91464078 21.85196117 21.85196117)"><rect fill="#000" x="0" y="0" width="512" height="512" style="stroke:#949698;stroke-width:3px;" /><path d="M96,296c100,-180 120,-140 180,-80" style="fill:none;fill-rule:nonzero;stroke:#fffaba;stroke-width:24px;stroke-linecap:round;stroke-linejoin:miter;stroke-miterlimit:4;" /><path d="M416,216c-100,180 -120,140 -180,80" style="fill:none;fill-rule:nonzero;stroke:#fff49d;stroke-width:24px;stroke-linecap:round;stroke-linejoin:miter;stroke-miterlimit:4;" /><circle cx="459.2" cy="211.8" r="9" style="fill:#fffeea;fill-opacity:0.8;" /><circle cx="52.7" cy="289.9" r="9" style="fill:#fffeea;fill-opacity:0.8;" /><circle cx="281.4" cy="28" r="9" style="fill:#fffeea;fill-opacity:0.8;" /><circle cx="113.2" cy="76.1" r="9" style="fill:#fffeea;fill-opacity:0.8;" /><circle cx="69.4" cy="186.2" r="9" style="fill:#fffeea;fill-opacity:0.8;" /><circle cx="440.4" cy="291.6" r="9" style="fill:#fffeea;fill-opacity:0.8;" /><circle cx="410.5" cy="146.6" r="9" style="fill:#fffeea;fill-opacity:0.8;" /><circle cx="100" cy="118.6" r="9" style="fill:#fffeea;fill-opacity:0.8;" /><circle cx="236" cy="87.162" r="9" style="fill:#fffeea;fill-opacity:0.8;" /><circle cx="141.1" cy="117.1" r="9" style="fill:#fffeea;fill-opacity:0.8;" /><circle cx="160.6" cy="69.9" r="9" style="fill:#fffeea;fill-opacity:0.8;" /><circle cx="464.4" cy="257" r="9" style="fill:#fffeea;fill-opacity:0.8;" /><circle cx="463.7" cy="257.3" r="9" style="fill:#fffeea;fill-opacity:0.8;" /><circle cx="317" cy="143.9" r="9" style="fill:#fffeea;fill-opacity:0.8;" /><circle cx="73.8" cy="256.9" r="9" style="fill:#fffeea;fill-opacity:0.8;" /><circle cx="408.2" cy="143.9" r="9" style="fill:#fffeea;fill-opacity:0.8;" /></g></svg>