<svg xmlns="http://www.w3.org/2000/svg" width="512" height="512" viewBox="0 0 512 512" version="1.1" xml:space="preserve" style="fill-rule:evenodd;clip-rule:evenodd;stroke-linejoin:round;stroke-miterlimit:2;"><g transform="matrix(0.91464078 0 0 0.91464078 21.85196117 21.85196117)"><rect fill="#000" x="0" y="0" width="512" height="512" style="stroke:#949698;stroke-width:3px;" /><path d="M411,255.882c0.027,38.634 -31.317,70.022 -69.951,70.049c-38.635,0.026 -70.022,-31.318 -70.049,-69.952c-0.027,-38.634 31.317,-70.022 69.951,-70.048c38.634,-0.027 70.022,31.317 70.049,69.951Z" style="fill:none;stroke:#fff;stroke-opacity:0.69;stroke-width:10px;stroke-linejoin:miter;stroke-miterlimit:4;stroke-dasharray:28,22;" /><path d="M381,255.903c0.054,77.268 -62.635,140.043 -139.903,140.097c-77.268,0.054 -140.043,-62.635 -140.097,-139.903c-0.054,-77.268 62.635,-140.043 139.903,-140.097c77.268,-0.054 140.043,62.635 140.097,139.903Z" style="fill:none;stroke:#fff;stroke-opacity:0.5;stroke-width:10px;stroke-linejoin:miter;stroke-miterlimit:4;stroke-dasharray:28,22;" /></g></svg>