<svg xmlns="http://www.w3.org/2000/svg" viewBox="0 0 512 512" stroke-width="2.28" stroke="#e6e6e6" fill="none" width="512" height="512" clip-rule="evenodd" version="1.1">
    <g transform="matrix(0.93646123 0 0 0.93646123 21.88469185 21.88469185)"><rect stroke-width="3" stroke="#393736" stroke-linejoin="round" fill="#000" width="500" height="500" fill-rule="evenodd" stroke-miterlimit="2" />
    <path stroke-width="6" stroke="#000" stroke-linejoin="round" fill="#fff" d="M294.373 340.643c-15.754 20.77-29.068 40.83-29.094 62.153-0.013 10.108-15.292 10.075-15.279-0.019 0.033-27.278 16.922-51.435 34.719-74.671 3.193 4.154 6.466 8.36 9.654 12.537zM294.373 159.356c-15.754-20.771-29.068-40.831-29.094-62.153-0.013-10.109-15.292-10.075-15.279 0.018 0.033 27.278 16.922 51.435 34.719 74.671 3.197-4.158 6.468-8.363 9.654-12.536zM298.209 189.467c37.164 49.334 37.17 71.721 0 121.065 3.168 4.174 6.394 8.326 9.652 12.554 44.683-58.609 44.809-87.399 0-146.173-3.225 4.184-6.478 8.372-9.652 12.554zM266.501 250.009c0.063-50.843 76.013-94.982 76.084-152.788 0.012-10.105-15.266-10.112-15.279-0.018-0.062 50.851-76.013 94.966-76.084 152.806 0.071 57.803 76.022 101.946 76.084 152.787 0.013 10.128 15.291 10.059 15.279-0.019-0.071-57.796-76.021-101.96-76.084-152.768z" stroke-miterlimit="2" />
    <path stroke-width="3.43" stroke-linecap="round" d="M92.09 152.737h54.925" />
    <circle cx="78.359" cy="152.737" fill-rule="evenodd" r="6.865" />
    <circle cx="160.745" cy="152.737" fill-rule="evenodd" r="6.865" />
    <path stroke-width="3.43" stroke-linecap="round" d="M92.09 221.394h54.925" />
    <rect width="13.731" height="13.731" fill-rule="evenodd" x="71.493" y="214.528" />
    <rect width="13.731" height="13.731" fill-rule="evenodd" x="153.88" y="214.528" />
    <path stroke-width="3.43" stroke-linecap="round" d="M92.09 280.895h54.925" />
    <path d="M78.359 274.03l-6.866 13.731h13.731z" />
    <path d="M160.745 274.03l-6.865 13.731h13.731z" />
    <path stroke-width="3.43" stroke-linecap="round" d="M92.09 347.263h54.925" />
    <path d="M78.359 340.396l-6.866 6.867 6.866 6.865 6.865-6.865z" />
    <path d="M160.745 340.396l-6.865 6.867 6.865 6.865 6.866-6.865z" />
</g></svg>