<svg xmlns="http://www.w3.org/2000/svg" width="512" height="512" viewBox="0 0 512 512" version="1.1" xml:space="preserve" style="fill-rule:evenodd;clip-rule:evenodd;stroke-linejoin:round;stroke-miterlimit:2;"><g transform="matrix(0.91464078 0 0 0.91464078 21.85196117 21.85196117)"><rect fill="#000" x="0" y="0" width="512" height="512" style="stroke:#949698;stroke-width:3px;" /><circle cx="212.1" cy="400.6" r="1.08" style="fill:#ffcc40;fill-opacity:0.65;" /><circle cx="215.1" cy="100.5" r="2.14" style="fill:#ffcc40;fill-opacity:0.65;" /><circle cx="325.6" cy="26" r="1.58" style="fill:#ffcc40;fill-opacity:0.65;" /><circle cx="226.9" cy="157.8" r="1.07" style="fill:#ffcc40;fill-opacity:0.65;" /><circle cx="181.6" cy="297.1" r="0.93" style="fill:#ffcc40;fill-opacity:0.65;" /><circle cx="320.8" cy="486" r="1.41" style="fill:#ffcc40;fill-opacity:0.65;" /><circle cx="233.1" cy="468.3" r="1" style="fill:#ffcc40;fill-opacity:0.65;" /><circle cx="337.4" cy="190.8" r="1.95" style="fill:#ffcc40;fill-opacity:0.65;" /><circle cx="195.9" cy="323.5" r="1.27" style="fill:#ffcc40;fill-opacity:0.65;" /><circle cx="259" cy="73.7" r="1.96" style="fill:#ffcc40;fill-opacity:0.65;" /><circle cx="29.3" cy="291.7" r="1.8" style="fill:#ffcc40;fill-opacity:0.65;" /><circle cx="184.3" cy="23.5" r="1.98" style="fill:#ffcc40;fill-opacity:0.65;" /><circle cx="284.7" cy="379.9" r="1.5" style="fill:#ffcc40;fill-opacity:0.65;" /><circle cx="215.4" cy="341.5" r="1.45" style="fill:#ffcc40;fill-opacity:0.65;" /><circle cx="192.9" cy="145" r="1.92" style="fill:#ffcc40;fill-opacity:0.65;" /><circle cx="266.1" cy="276.2" r="1.73" style="fill:#ffcc40;fill-opacity:0.65;" /><circle cx="389.2" cy="419.5" r="1.63" style="fill:#ffcc40;fill-opacity:0.65;" /><circle cx="322" cy="248.5" r="0.69" style="fill:#ffcc40;fill-opacity:0.65;" /><circle cx="282.2" cy="273.1" r="1.07" style="fill:#ffcc40;fill-opacity:0.65;" /><circle cx="89.7" cy="368.9" r="1.95" style="fill:#ffcc40;fill-opacity:0.65;" /><circle cx="32.7" cy="351.9" r="0.74" style="fill:#ffcc40;fill-opacity:0.65;" /><circle cx="390.2" cy="351.8" r="2" style="fill:#ffcc40;fill-opacity:0.65;" /><circle cx="177.1" cy="78.8" r="2.1" style="fill:#ffcc40;fill-opacity:0.65;" /><circle cx="87" cy="254.5" r="0.83" style="fill:#ffcc40;fill-opacity:0.65;" /><circle cx="200.6" cy="198.1" r="1.68" style="fill:#ffcc40;fill-opacity:0.65;" /><circle cx="29" cy="293.9" r="1.85" style="fill:#ffcc40;fill-opacity:0.65;" /><circle cx="291.2" cy="308" r="0.65" style="fill:#ffcc40;fill-opacity:0.65;" /><circle cx="230.7" cy="101.4" r="0.83" style="fill:#ffcc40;fill-opacity:0.65;" /><circle cx="197.4" cy="237.9" r="0.98" style="fill:#ffcc40;fill-opacity:0.65;" /><circle cx="48.5" cy="329.6" r="1.21" style="fill:#ffcc40;fill-opacity:0.65;" /><circle cx="176.8" cy="360.6" r="1.48" style="fill:#ffcc40;fill-opacity:0.65;" /><circle cx="320.9" cy="131.8" r="0.68" style="fill:#ffcc40;fill-opacity:0.65;" /><circle cx="398.6" cy="250.6" r="0.75" style="fill:#ffcc40;fill-opacity:0.65;" /><circle cx="414.5" cy="104" r="1.44" style="fill:#ffcc40;fill-opacity:0.65;" /><circle cx="260" cy="227.1" r="0.61" style="fill:#ffcc40;fill-opacity:0.65;" /><circle cx="165.9" cy="226.4" r="1.75" style="fill:#ffcc40;fill-opacity:0.65;" /><circle cx="429.8" cy="313.1" r="2.04" style="fill:#ffcc40;fill-opacity:0.65;" /><circle cx="112.6" cy="260" r="1.91" style="fill:#ffcc40;fill-opacity:0.65;" /><circle cx="180.7" cy="116.9" r="0.86" style="fill:#ffcc40;fill-opacity:0.65;" /><circle cx="163.6" cy="368.7" r="1.15" style="fill:#ffcc40;fill-opacity:0.65;" /><circle cx="210.1" cy="39.8" r="1.08" style="fill:#ffcc40;fill-opacity:0.65;" /><circle cx="355.6" cy="27.1" r="1.96" style="fill:#ffcc40;fill-opacity:0.65;" /><circle cx="228.7" cy="382.1" r="1.63" style="fill:#ffcc40;fill-opacity:0.65;" /><circle cx="455.1" cy="190.5" r="0.65" style="fill:#ffcc40;fill-opacity:0.65;" /><circle cx="357.9" cy="269.4" r="0.66" style="fill:#ffcc40;fill-opacity:0.65;" /><circle cx="240.1" cy="117.4" r="1.28" style="fill:#ffcc40;fill-opacity:0.65;" /><circle cx="254.5" cy="273.9" r="1.52" style="fill:#ffcc40;fill-opacity:0.65;" /><circle cx="271" cy="467.7" r="0.84" style="fill:#ffcc40;fill-opacity:0.65;" /><circle cx="85.9" cy="152.9" r="2.12" style="fill:#ffcc40;fill-opacity:0.65;" /><circle cx="300.9" cy="212.5" r="1.14" style="fill:#ffcc40;fill-opacity:0.65;" /><circle cx="472.4" cy="329" r="1.7" style="fill:#ffcc40;fill-opacity:0.65;" /><circle cx="331.7" cy="115.7" r="1.88" style="fill:#ffcc40;fill-opacity:0.65;" /><circle cx="79.9" cy="98.4" r="1.02" style="fill:#ffcc40;fill-opacity:0.65;" /><circle cx="213.9" cy="246.2" r="2.12" style="fill:#ffcc40;fill-opacity:0.65;" /><circle cx="198.7" cy="247.4" r="1.79" style="fill:#ffcc40;fill-opacity:0.65;" /><circle cx="413.4" cy="343.4" r="1.75" style="fill:#ffcc40;fill-opacity:0.65;" /><circle cx="131.8" cy="390" r="1.95" style="fill:#ffcc40;fill-opacity:0.65;" /><circle cx="124.1" cy="226.3" r="1" style="fill:#ffcc40;fill-opacity:0.65;" /><circle cx="394.6" cy="122.6" r="0.64" style="fill:#ffcc40;fill-opacity:0.65;" /><circle cx="438.4" cy="245.5" r="1.89" style="fill:#ffcc40;fill-opacity:0.65;" /><circle cx="27.1" cy="160.6" r="0.69" style="fill:#ffcc40;fill-opacity:0.65;" /><circle cx="299.1" cy="253.2" r="1.31" style="fill:#ffcc40;fill-opacity:0.65;" /><circle cx="293.8" cy="221.7" r="1.07" style="fill:#ffcc40;fill-opacity:0.65;" /><circle cx="442.9" cy="147.6" r="1.86" style="fill:#ffcc40;fill-opacity:0.65;" /><circle cx="175.1" cy="491.9" r="1.98" style="fill:#ffcc40;fill-opacity:0.65;" /><circle cx="322.7" cy="382.1" r="1.62" style="fill:#ffcc40;fill-opacity:0.65;" /><circle cx="347.6" cy="325.2" r="1.85" style="fill:#ffcc40;fill-opacity:0.65;" /><circle cx="237" cy="121.1" r="0.73" style="fill:#ffcc40;fill-opacity:0.65;" /><circle cx="425.5" cy="337.6" r="1.81" style="fill:#ffcc40;fill-opacity:0.65;" /><circle cx="214.8" cy="67.4" r="1.14" style="fill:#ffcc40;fill-opacity:0.65;" /><circle cx="189.5" cy="94.8" r="1.77" style="fill:#ffcc40;fill-opacity:0.65;" /><circle cx="179.3" cy="279.1" r="0.69" style="fill:#ffcc40;fill-opacity:0.65;" /><circle cx="236.1" cy="371.4" r="2.13" style="fill:#ffcc40;fill-opacity:0.65;" /><circle cx="178.8" cy="144.4" r="2.05" style="fill:#ffcc40;fill-opacity:0.65;" /><circle cx="237.2" cy="456.1" r="0.88" style="fill:#ffcc40;fill-opacity:0.65;" /><circle cx="316.9" cy="348" r="1.85" style="fill:#ffcc40;fill-opacity:0.65;" /><circle cx="198" cy="398.2" r="1.93" style="fill:#ffcc40;fill-opacity:0.65;" /><circle cx="231.9" cy="301.8" r="0.67" style="fill:#ffcc40;fill-opacity:0.65;" /><circle cx="351.1" cy="254" r="0.81" style="fill:#ffcc40;fill-opacity:0.65;" /><circle cx="415.1" cy="84.8" r="2.08" style="fill:#ffcc40;fill-opacity:0.65;" /><circle cx="136.8" cy="37.5" r="1.52" style="fill:#ffcc40;fill-opacity:0.65;" /><circle cx="259.6" cy="59.5" r="1.17" style="fill:#ffcc40;fill-opacity:0.65;" /><circle cx="498.3" cy="218.8" r="2.15" style="fill:#ffcc40;fill-opacity:0.65;" /><circle cx="32.6" cy="245.7" r="2.08" style="fill:#ffcc40;fill-opacity:0.65;" /><circle cx="155.8" cy="297" r="1.31" style="fill:#ffcc40;fill-opacity:0.65;" /><circle cx="210.9" cy="90.3" r="1.02" style="fill:#ffcc40;fill-opacity:0.65;" /><circle cx="59.3" cy="321.4" r="1.11" style="fill:#ffcc40;fill-opacity:0.65;" /><circle cx="195.1" cy="410.7" r="1.13" style="fill:#ffcc40;fill-opacity:0.65;" /><circle cx="378.6" cy="41.8" r="0.65" style="fill:#ffcc40;fill-opacity:0.65;" /><circle cx="472.6" cy="356.1" r="0.73" style="fill:#ffcc40;fill-opacity:0.65;" /><circle cx="102" cy="407.8" r="0.75" style="fill:#ffcc40;fill-opacity:0.65;" /><circle cx="326.6" cy="101" r="2.01" style="fill:#ffcc40;fill-opacity:0.65;" /><circle cx="270.4" cy="325.2" r="1.83" style="fill:#ffcc40;fill-opacity:0.65;" /><circle cx="85.5" cy="385.8" r="1.83" style="fill:#ffcc40;fill-opacity:0.65;" /><circle cx="415.9" cy="355.5" r="1.74" style="fill:#ffcc40;fill-opacity:0.65;" /><circle cx="302.2" cy="270.6" r="1.09" style="fill:#ffcc40;fill-opacity:0.65;" /><circle cx="210.8" cy="225.6" r="0.88" style="fill:#ffcc40;fill-opacity:0.65;" /><circle cx="283.2" cy="164.6" r="1.58" style="fill:#ffcc40;fill-opacity:0.65;" /><circle cx="241.2" cy="329" r="0.84" style="fill:#ffcc40;fill-opacity:0.65;" /><circle cx="305.1" cy="346.3" r="1.82" style="fill:#ffcc40;fill-opacity:0.65;" /><circle cx="92.3" cy="215.5" r="1.64" style="fill:#ffcc40;fill-opacity:0.65;" /><circle cx="231.6" cy="473.7" r="1.84" style="fill:#ffcc40;fill-opacity:0.65;" /><circle cx="261.5" cy="167.5" r="0.65" style="fill:#ffcc40;fill-opacity:0.65;" /><circle cx="485.9" cy="261.2" r="1.33" style="fill:#ffcc40;fill-opacity:0.65;" /><circle cx="401.1" cy="271.3" r="0.86" style="fill:#ffcc40;fill-opacity:0.65;" /><circle cx="141.3" cy="122.7" r="1.34" style="fill:#ffcc40;fill-opacity:0.65;" /><circle cx="230" cy="440.6" r="1.61" style="fill:#ffcc40;fill-opacity:0.65;" /><circle cx="190.3" cy="457.1" r="1.48" style="fill:#ffcc40;fill-opacity:0.65;" /><circle cx="475.9" cy="184.8" r="0.74" style="fill:#ffcc40;fill-opacity:0.65;" /><circle cx="426.1" cy="384.7" r="1.88" style="fill:#ffcc40;fill-opacity:0.65;" /><circle cx="411.2" cy="335.3" r="1.78" style="fill:#ffcc40;fill-opacity:0.65;" /><circle cx="353.4" cy="247.7" r="1.97" style="fill:#ffcc40;fill-opacity:0.65;" /><circle cx="217.2" cy="300.1" r="1.1" style="fill:#ffcc40;fill-opacity:0.65;" /><circle cx="156.1" cy="52.4" r="2.03" style="fill:#ffcc40;fill-opacity:0.65;" /><circle cx="182.2" cy="297" r="1.77" style="fill:#ffcc40;fill-opacity:0.65;" /><circle cx="432.4" cy="367.7" r="0.92" style="fill:#ffcc40;fill-opacity:0.65;" /><circle cx="239.8" cy="346.7" r="1.57" style="fill:#ffcc40;fill-opacity:0.65;" /><circle cx="269" cy="273.2" r="0.87" style="fill:#ffcc40;fill-opacity:0.65;" /><circle cx="435.7" cy="268.5" r="1.84" style="fill:#ffcc40;fill-opacity:0.65;" /><circle cx="319.8" cy="25.1" r="1.33" style="fill:#ffcc40;fill-opacity:0.65;" /><circle cx="148.4" cy="291.4" r="2.17" style="fill:#ffcc40;fill-opacity:0.65;" /><circle cx="374.9" cy="289.7" r="1.64" style="fill:#ffcc40;fill-opacity:0.65;" /><circle cx="213.4" cy="309.2" r="0.92" style="fill:#ffcc40;fill-opacity:0.65;" /><circle cx="204.4" cy="469.5" r="2.06" style="fill:#ffcc40;fill-opacity:0.65;" /><circle cx="173.1" cy="152.2" r="0.73" style="fill:#ffcc40;fill-opacity:0.65;" /><circle cx="246.5" cy="274.4" r="1.68" style="fill:#ffcc40;fill-opacity:0.65;" /><circle cx="429.4" cy="153.6" r="1.73" style="fill:#ffcc40;fill-opacity:0.65;" /><circle cx="272.2" cy="236.5" r="0.9" style="fill:#ffcc40;fill-opacity:0.65;" /><circle cx="260" cy="450.4" r="0.85" style="fill:#ffcc40;fill-opacity:0.65;" /><circle cx="44" cy="346" r="1.17" style="fill:#ffcc40;fill-opacity:0.65;" /><circle cx="205" cy="188.2" r="1.98" style="fill:#ffcc40;fill-opacity:0.65;" /><circle cx="255.2" cy="423.1" r="1.89" style="fill:#ffcc40;fill-opacity:0.65;" /><circle cx="360.6" cy="436.2" r="1.13" style="fill:#ffcc40;fill-opacity:0.65;" /><circle cx="388.8" cy="465.9" r="0.75" style="fill:#ffcc40;fill-opacity:0.65;" /><circle cx="68.6" cy="127.6" r="1.19" style="fill:#ffcc40;fill-opacity:0.65;" /><circle cx="204.8" cy="475.9" r="1.15" style="fill:#ffcc40;fill-opacity:0.65;" /><circle cx="360.6" cy="412.5" r="1.61" style="fill:#ffcc40;fill-opacity:0.65;" /><circle cx="177.5" cy="229.2" r="1.25" style="fill:#ffcc40;fill-opacity:0.65;" /><circle cx="190.6" cy="443.1" r="0.84" style="fill:#ffcc40;fill-opacity:0.65;" /><circle cx="334.8" cy="157.2" r="0.89" style="fill:#ffcc40;fill-opacity:0.65;" /><circle cx="270.1" cy="231.9" r="1.63" style="fill:#ffcc40;fill-opacity:0.65;" /><circle cx="462.9" cy="199.7" r="2.2" style="fill:#ffcc40;fill-opacity:0.65;" /><circle cx="407.1" cy="372.8" r="1.47" style="fill:#ffcc40;fill-opacity:0.65;" /><circle cx="428.5" cy="355.4" r="0.82" style="fill:#ffcc40;fill-opacity:0.65;" /><circle cx="316.7" cy="303" r="2.09" style="fill:#ffcc40;fill-opacity:0.65;" /><circle cx="308.4" cy="112.6" r="1.11" style="fill:#ffcc40;fill-opacity:0.65;" /><circle cx="305.1" cy="236.8" r="0.9" style="fill:#ffcc40;fill-opacity:0.65;" /><circle cx="319.9" cy="182.2" r="1.67" style="fill:#ffcc40;fill-opacity:0.65;" /><circle cx="83.4" cy="403.9" r="2.17" style="fill:#ffcc40;fill-opacity:0.65;" /><circle cx="219.2" cy="120.2" r="0.84" style="fill:#ffcc40;fill-opacity:0.65;" /><circle cx="380.6" cy="185.6" r="1.16" style="fill:#ffcc40;fill-opacity:0.65;" /><circle cx="211.5" cy="81.1" r="1.3" style="fill:#ffcc40;fill-opacity:0.65;" /><circle cx="81.8" cy="160.7" r="1.76" style="fill:#ffcc40;fill-opacity:0.65;" /><circle cx="112" cy="270.4" r="1.99" style="fill:#ffcc40;fill-opacity:0.65;" /><circle cx="100.7" cy="108.1" r="0.84" style="fill:#ffcc40;fill-opacity:0.65;" /><circle cx="88.4" cy="362.3" r="2.15" style="fill:#ffcc40;fill-opacity:0.65;" /><circle cx="183.6" cy="115.5" r="1.67" style="fill:#ffcc40;fill-opacity:0.65;" /><circle cx="373" cy="425.2" r="0.65" style="fill:#ffcc40;fill-opacity:0.65;" /><circle cx="198.9" cy="395.5" r="1.49" style="fill:#ffcc40;fill-opacity:0.65;" /><circle cx="146.6" cy="342" r="1.35" style="fill:#ffcc40;fill-opacity:0.65;" /><circle cx="476.6" cy="216.7" r="0.69" style="fill:#ffcc40;fill-opacity:0.65;" /><circle cx="136" cy="101.1" r="1.72" style="fill:#ffcc40;fill-opacity:0.65;" /><circle cx="76.4" cy="238" r="1.02" style="fill:#ffcc40;fill-opacity:0.65;" /><circle cx="243.8" cy="129.6" r="2.09" style="fill:#ffcc40;fill-opacity:0.65;" /><circle cx="123.2" cy="285.3" r="1.91" style="fill:#ffcc40;fill-opacity:0.65;" /><circle cx="496.5" cy="192.4" r="1.31" style="fill:#ffcc40;fill-opacity:0.65;" /><circle cx="128.6" cy="43.2" r="1.51" style="fill:#ffcc40;fill-opacity:0.65;" /><circle cx="212.2" cy="212.6" r="2.07" style="fill:#ffcc40;fill-opacity:0.65;" /><circle cx="381.1" cy="238" r="2.05" style="fill:#ffcc40;fill-opacity:0.65;" /><circle cx="209.5" cy="483.2" r="0.64" style="fill:#ffcc40;fill-opacity:0.65;" /><circle cx="144.6" cy="443" r="2.07" style="fill:#ffcc40;fill-opacity:0.65;" /><circle cx="415.9" cy="263.6" r="2.1" style="fill:#ffcc40;fill-opacity:0.65;" /><circle cx="225" cy="447.2" r="1.44" style="fill:#ffcc40;fill-opacity:0.65;" /><circle cx="59.1" cy="166.9" r="1.6" style="fill:#ffcc40;fill-opacity:0.65;" /><circle cx="333.1" cy="314.3" r="1.6" style="fill:#ffcc40;fill-opacity:0.65;" /><circle cx="323.7" cy="401.8" r="1.64" style="fill:#ffcc40;fill-opacity:0.65;" /><circle cx="101.4" cy="262.2" r="1.93" style="fill:#ffcc40;fill-opacity:0.65;" /><circle cx="333.7" cy="53.1" r="2.03" style="fill:#ffcc40;fill-opacity:0.65;" /><circle cx="56.5" cy="178.8" r="0.94" style="fill:#ffcc40;fill-opacity:0.65;" /><circle cx="60.7" cy="324.6" r="1.43" style="fill:#ffcc40;fill-opacity:0.65;" /><circle cx="165.2" cy="264.6" r="1.93" style="fill:#ffcc40;fill-opacity:0.65;" /><circle cx="20.3" cy="179.9" r="1.9" style="fill:#ffcc40;fill-opacity:0.65;" /><circle cx="348.4" cy="190.5" r="1.27" style="fill:#ffcc40;fill-opacity:0.65;" /><circle cx="132.5" cy="239.4" r="1.27" style="fill:#ffcc40;fill-opacity:0.65;" /><circle cx="336.3" cy="253" r="1.45" style="fill:#ffcc40;fill-opacity:0.65;" /><circle cx="228.5" cy="237.7" r="0.65" style="fill:#ffcc40;fill-opacity:0.65;" /><circle cx="86.5" cy="295.7" r="1.81" style="fill:#ffcc40;fill-opacity:0.65;" /><circle cx="214.2" cy="88.9" r="2.04" style="fill:#ffcc40;fill-opacity:0.65;" /><circle cx="164.3" cy="83.7" r="1.32" style="fill:#ffcc40;fill-opacity:0.65;" /><circle cx="245.8" cy="269.3" r="0.82" style="fill:#ffcc40;fill-opacity:0.65;" /><circle cx="205.8" cy="151.6" r="0.83" style="fill:#ffcc40;fill-opacity:0.65;" /><circle cx="281.4" cy="126.9" r="1.26" style="fill:#ffcc40;fill-opacity:0.65;" /><circle cx="182.4" cy="494.1" r="1.54" style="fill:#ffcc40;fill-opacity:0.65;" /><circle cx="268.6" cy="148.9" r="1.24" style="fill:#ffcc40;fill-opacity:0.65;" /><circle cx="441.3" cy="274.8" r="1.41" style="fill:#ffcc40;fill-opacity:0.65;" /><circle cx="197.4" cy="136.5" r="1.83" style="fill:#ffcc40;fill-opacity:0.65;" /><circle cx="284.1" cy="320.7" r="2.2" style="fill:#ffcc40;fill-opacity:0.65;" /><circle cx="239.2" cy="245.5" r="1.7" style="fill:#ffcc40;fill-opacity:0.65;" /><circle cx="300.7" cy="61.7" r="1.68" style="fill:#ffcc40;fill-opacity:0.65;" /><circle cx="115.9" cy="161.4" r="1.17" style="fill:#ffcc40;fill-opacity:0.65;" /><circle cx="437.7" cy="135.2" r="0.82" style="fill:#ffcc40;fill-opacity:0.65;" /><circle cx="103" cy="417" r="1.62" style="fill:#ffcc40;fill-opacity:0.65;" /><circle cx="359.6" cy="52.9" r="1.19" style="fill:#ffcc40;fill-opacity:0.65;" /><circle cx="257.3" cy="203.5" r="1.94" style="fill:#ffcc40;fill-opacity:0.65;" /><circle cx="268.9" cy="247.9" r="1.44" style="fill:#ffcc40;fill-opacity:0.65;" /><circle cx="213.3" cy="113.4" r="1.53" style="fill:#ffcc40;fill-opacity:0.65;" /><circle cx="18.9" cy="216.6" r="1.18" style="fill:#ffcc40;fill-opacity:0.65;" /><circle cx="437.6" cy="271.3" r="1.79" style="fill:#ffcc40;fill-opacity:0.65;" /><circle cx="243.2" cy="190.9" r="1.85" style="fill:#ffcc40;fill-opacity:0.65;" /><circle cx="133.8" cy="445" r="1.85" style="fill:#ffcc40;fill-opacity:0.65;" /><circle cx="315" cy="108.3" r="1.47" style="fill:#ffcc40;fill-opacity:0.65;" /><circle cx="227.7" cy="204.2" r="0.73" style="fill:#ffcc40;fill-opacity:0.65;" /><circle cx="182" cy="190" r="1.09" style="fill:#ffcc40;fill-opacity:0.65;" /><circle cx="181.6" cy="321.5" r="1.85" style="fill:#ffcc40;fill-opacity:0.65;" /><circle cx="294.1" cy="257.7" r="1.1" style="fill:#ffcc40;fill-opacity:0.65;" /><circle cx="408" cy="242.6" r="0.76" style="fill:#ffcc40;fill-opacity:0.65;" /><circle cx="209.5" cy="121.4" r="2.12" style="fill:#ffcc40;fill-opacity:0.65;" /><circle cx="424.2" cy="184.5" r="1.75" style="fill:#ffcc40;fill-opacity:0.65;" /><circle cx="322.2" cy="173.4" r="1.91" style="fill:#ffcc40;fill-opacity:0.65;" /><circle cx="155.4" cy="356.2" r="1" style="fill:#ffcc40;fill-opacity:0.65;" /><path d="   M 0,348.187   A 1509.544,1509.544 0 0 1 512,258.897   L 512,168.897   A 1599.544,1599.544 0 0 0 0,252.875   Z" style="fill:#cdcdcd;fill-opacity:0.18;" /></g></svg>