<svg xmlns="http://www.w3.org/2000/svg" width="512" height="512" viewBox="0 0 512 512" version="1.1" xml:space="preserve" style="fill-rule:evenodd;clip-rule:evenodd;stroke-linejoin:round;stroke-miterlimit:2;"><g transform="matrix(0.91464078 0 0 0.91464078 21.85196117 21.85196117)"><rect fill="#000" x="0" y="0" width="512" height="512" style="stroke:#949698;stroke-width:3px;" /><g opacity="0.85"><circle cx="54" cy="110" r="1" style="fill:#cfe0ff;" /><circle cx="94" cy="66" r="1" style="fill:#fff;" /><circle cx="140" cy="150" r="1" style="fill:#cfe0ff;" /><circle cx="178" cy="92" r="1" style="fill:#e9f2ff;" /><circle cx="226" cy="64" r="1" style="fill:#fff;" /><circle cx="280" cy="86" r="1" style="fill:#cfe0ff;" /><circle cx="332" cy="58" r="1" style="fill:#fff;" /><circle cx="380" cy="132" r="1" style="fill:#e9f2ff;" /><circle cx="430" cy="90" r="1" style="fill:#cfe0ff;" /><circle cx="466" cy="152" r="1" style="fill:#fff;" /><circle cx="486" cy="236" r="1" style="fill:#e9f2ff;" /><circle cx="448" cy="296" r="1" style="fill:#fff;" /><circle cx="492" cy="360" r="1" style="fill:#cfe0ff;" /><circle cx="428" cy="430" r="1" style="fill:#fff;" /><circle cx="352" cy="468" r="1" style="fill:#e9f2ff;" /><circle cx="286" cy="444" r="1" style="fill:#fff;" /><circle cx="220" cy="482" r="1" style="fill:#cfe0ff;" /><circle cx="164" cy="432" r="1" style="fill:#fff;" /><circle cx="104" cy="452" r="1" style="fill:#e9f2ff;" /><circle cx="62" cy="398" r="1" style="fill:#fff;" /><circle cx="40" cy="318" r="1" style="fill:#cfe0ff;" /><circle cx="74" cy="260" r="1" style="fill:#fff;" /><circle cx="30" cy="210" r="1" style="fill:#e9f2ff;" /><circle cx="64" cy="170" r="1" style="fill:#fff;" /></g><g><ellipse cx="256" cy="256" rx="150" ry="115" style="fill:#5aa6ff;fill-opacity:0.05;" /><ellipse cx="256" cy="256" rx="132" ry="102" style="fill:#5aa6ff;fill-opacity:0.06;" /><ellipse cx="256" cy="256" rx="118" ry="92" style="fill:#b6d8ff;fill-opacity:0.05;" /></g><g><ellipse cx="256" cy="256" rx="110" ry="82" style="fill:none;stroke:#56a7ff;stroke-opacity:0.2;stroke-width:48px;stroke-linecap:round;stroke-miterlimit:4;" /><ellipse cx="256" cy="256" rx="110" ry="82" style="fill:none;stroke:#b6d8ff;stroke-opacity:0.2;stroke-width:24px;stroke-linecap:round;stroke-miterlimit:4;" /><ellipse cx="240.3" cy="254.361" rx="94.3" ry="66.646" style="fill:none;stroke:#2fe0d0;stroke-opacity:0.22;stroke-width:16.99px;stroke-linecap:round;stroke-miterlimit:4;" /><ellipse cx="260.463" cy="251.887" rx="116.463" ry="88.113" style="fill:none;stroke:#ff9d5b;stroke-opacity:0.14;stroke-width:10.44px;stroke-linecap:round;stroke-miterlimit:4;" /><ellipse cx="236" cy="269.721" rx="90" ry="70.279" style="fill:none;stroke:#ff5ab0;stroke-opacity:0.1;stroke-width:8.7px;stroke-linecap:round;stroke-miterlimit:4;" /><ellipse cx="253.102" cy="253.721" rx="72.898" ry="54.279" style="fill:none;stroke:#000;stroke-opacity:0.35;stroke-width:27.11px;stroke-linecap:round;stroke-miterlimit:4;" /></g><g><ellipse cx="248.074" cy="254.736" rx="77.926" ry="47.264" style="fill:#2fe0d0;fill-opacity:0.08;" /><ellipse cx="256" cy="263" rx="52" ry="45" style="fill:#b6d8ff;fill-opacity:0.06;" /><ellipse cx="255.034" cy="259.234" rx="40.966" ry="26.766" style="fill:#fff;fill-opacity:0.04;" /></g><g opacity="0.75"><circle cx="311" cy="251.361" r="3" style="fill:#b6d8ff;fill-opacity:0.22;" /><circle cx="348" cy="268" r="3" style="fill:#56a7ff;fill-opacity:0.2;" /><circle cx="320" cy="296" r="3" style="fill:#2fe0d0;fill-opacity:0.18;" /><circle cx="284" cy="316" r="3" style="fill:#ff9d5b;fill-opacity:0.16;" /><circle cx="237.3" cy="308" r="3" style="fill:#b6d8ff;fill-opacity:0.18;" /><circle cx="188" cy="292" r="3" style="fill:#56a7ff;fill-opacity:0.18;" /><circle cx="170" cy="258" r="3" style="fill:#2fe0d0;fill-opacity:0.16;" /><circle cx="192" cy="224" r="3" style="fill:#ff5ab0;fill-opacity:0.12;" /></g></g></svg>