<svg xmlns="http://www.w3.org/2000/svg" xmlns:ns1="http://www.serif.com/" width="512" height="512" viewBox="0 0 512 512" version="1.1" xml:space="preserve" style="fill-rule:evenodd;clip-rule:evenodd;stroke-linejoin:round;stroke-miterlimit:2;"><g transform="matrix(0.91464078 0 0 0.91464078 21.85196117 21.85196117)"><rect fill="#000" x="0" y="0" width="512" height="512" style="stroke:#939598;stroke-width:3px;" /><circle cx="261.297" cy="260.131" r="14.921" style="fill:#363636;" /><g opacity="0.85"><circle cx="44" cy="78" r="1" style="fill:#dfe7ff;" /><circle cx="86" cy="52" r="1" style="fill:#dfe7ff;" /><circle cx="120" cy="96" r="1" style="fill:#dfe7ff;" /><circle cx="156" cy="44" r="1" style="fill:#dfe7ff;" /><circle cx="210" cy="70" r="1" style="fill:#dfe7ff;" /><circle cx="262" cy="38" r="1" style="fill:#dfe7ff;" /><circle cx="318" cy="60" r="1" style="fill:#dfe7ff;" /><circle cx="372" cy="42" r="1" style="fill:#dfe7ff;" /><circle cx="428" cy="88" r="1" style="fill:#dfe7ff;" /><circle cx="468" cy="56" r="1" style="fill:#dfe7ff;" /><circle cx="482" cy="128" r="1" style="fill:#dfe7ff;" /><circle cx="420" cy="156" r="1" style="fill:#dfe7ff;" /><circle cx="370" cy="126" r="1" style="fill:#dfe7ff;" /><circle cx="336" cy="180" r="1" style="fill:#dfe7ff;" /><circle cx="468" cy="206" r="1" style="fill:#dfe7ff;" /><circle cx="500" cy="260" r="1" style="fill:#dfe7ff;" /><circle cx="446" cy="310" r="1" style="fill:#dfe7ff;" /><circle cx="482" cy="356" r="1" style="fill:#dfe7ff;" /><circle cx="432" cy="410" r="1" style="fill:#dfe7ff;" /><circle cx="380" cy="472" r="1" style="fill:#dfe7ff;" /><circle cx="310" cy="440" r="1" style="fill:#dfe7ff;" /><circle cx="244" cy="488" r="1" style="fill:#dfe7ff;" /><circle cx="184" cy="446" r="1" style="fill:#dfe7ff;" /><circle cx="132" cy="470" r="1" style="fill:#dfe7ff;" /><circle cx="80" cy="420" r="1" style="fill:#dfe7ff;" /><circle cx="44" cy="360" r="1" style="fill:#dfe7ff;" /><circle cx="26" cy="296" r="1" style="fill:#dfe7ff;" /><circle cx="74" cy="262" r="1" style="fill:#dfe7ff;" /><circle cx="22" cy="208" r="1" style="fill:#dfe7ff;" /><circle cx="64" cy="160" r="1" style="fill:#dfe7ff;" /></g><g id="Arms"><path d="M266.324,273.208l-1.11,0.73l-1.2,0.63l-1.28,0.53l-1.34,0.42l-1.39,0.31l-1.43,0.19l-1.44,0.06l-1.45,-0.06l-1.43,-0.19l-1.41,-0.32l-1.37,-0.46l-1.32,-0.6l-1.26,-0.74l-1.18,-0.87l-1.09,-1.01l-0.99,-1.13l-0.88,-1.25l-0.75,-1.36l-0.62,-1.45l-0.48,-1.54l-0.32,-1.61l-0.16,-1.68l0.02,-1.74l0.2,-1.78l0.39,-1.8l0.59,-1.81l0.8,-1.79l1,-1.74l1.21,-1.68l1.42,-1.58l1.63,-1.45l1.82,-1.3l2.02,-1.12l2.18,-0.91l2.32,-0.67l2.44,-0.42l2.53,-0.13l2.59,0.18l2.62,0.51l2.6,0.86l2.55,1.22l2.46,1.58l2.32,1.94l2.15,2.29l1.94,2.63l1.68,2.95l1.39,3.24l1.04,3.5l0.66,3.72l0.25,3.89l-0.2,4.01l-0.68,4.08l-1.19,4.07l-1.72,4.02l-2.26,3.88l-2.8,3.67l-3.34,3.39l-3.85,3.01l-4.34,2.56l-4.78,2l-5.16,1.35l-5.49,0.6l-5.77,-0.24l-5.99,-1.15l-6.14,-2.12l-6.21,-3.13l-6.2,-4.16l-6.08,-5.17l-5.88,-6.15l-5.55,-7.06l-5.12,-7.89l-4.58,-8.62l-3.92,-9.25l-3.13,-9.74l-2.22,-10.08l-1.2,-10.25l-0.08,-10.25l1.14,-10.05l2.45,-9.65l3.82,-9.05l5.25,-8.24l6.7,-7.25" style="fill:none;fill-rule:nonzero;stroke:#6c6c6c;stroke-opacity:0.5;stroke-width:18px;stroke-linecap:round;stroke-miterlimit:4;" /><path d="M266.324,273.208l-1.11,0.73l-1.2,0.63l-1.28,0.53l-1.34,0.42l-1.39,0.31l-1.43,0.19l-1.44,0.06l-1.45,-0.06l-1.43,-0.19l-1.41,-0.32l-1.37,-0.46l-1.32,-0.6l-1.26,-0.74l-1.18,-0.87l-1.09,-1.01l-0.99,-1.13l-0.88,-1.25l-0.75,-1.36l-0.62,-1.45l-0.48,-1.54l-0.32,-1.61l-0.16,-1.68l0.02,-1.74l0.2,-1.78l0.39,-1.8l0.59,-1.81l0.8,-1.79l1,-1.74l1.21,-1.68l1.42,-1.58l1.63,-1.45l1.82,-1.3l2.02,-1.12l2.18,-0.91l2.32,-0.67l2.44,-0.42l2.53,-0.13l2.59,0.18l2.62,0.51l2.6,0.86l2.55,1.22l2.46,1.58l2.32,1.94l2.15,2.29l1.94,2.63l1.68,2.95l1.39,3.24l1.04,3.5l0.66,3.72l0.25,3.89l-0.2,4.01l-0.68,4.08l-1.19,4.07l-1.72,4.02l-2.26,3.88l-2.8,3.67l-3.34,3.39l-3.85,3.01l-4.34,2.56l-4.78,2l-5.16,1.35l-5.49,0.6l-5.77,-0.24l-5.99,-1.15l-6.14,-2.12l-6.21,-3.13l-6.2,-4.16l-6.08,-5.17l-5.88,-6.15l-5.55,-7.06l-5.12,-7.89l-4.58,-8.62l-3.92,-9.25l-3.13,-9.74l-2.22,-10.08l-1.2,-10.25l-0.08,-10.25l1.14,-10.05l2.45,-9.65l3.82,-9.05l5.25,-8.24l6.7,-7.25" style="fill:none;fill-rule:nonzero;stroke:#fff2d7;stroke-opacity:0.22;stroke-width:3px;stroke-linecap:round;stroke-miterlimit:4;" /></g><g id="Arms1" ns1:id="Arms"><path d="M256.224,243.33l1.11,-0.73l1.2,-0.63l1.28,-0.53l1.34,-0.42l1.39,-0.31l1.43,-0.19l1.44,-0.06l1.45,0.06l1.43,0.19l1.41,0.32l1.37,0.46l1.32,0.6l1.26,0.74l1.18,0.87l1.09,1.01l0.99,1.13l0.88,1.25l0.75,1.36l0.62,1.45l0.48,1.54l0.32,1.61l0.16,1.68l-0.02,1.74l-0.2,1.78l-0.39,1.8l-0.59,1.81l-0.8,1.79l-1,1.74l-1.21,1.68l-1.42,1.58l-1.63,1.45l-1.82,1.3l-2.02,1.12l-2.18,0.91l-2.32,0.67l-2.44,0.42l-2.53,0.13l-2.59,-0.18l-2.62,-0.51l-2.6,-0.86l-2.55,-1.22l-2.46,-1.58l-2.32,-1.94l-2.15,-2.29l-1.94,-2.63l-1.68,-2.95l-1.39,-3.24l-1.04,-3.5l-0.66,-3.72l-0.25,-3.89l0.2,-4.01l0.68,-4.08l1.19,-4.07l1.72,-4.02l2.26,-3.88l2.8,-3.67l3.34,-3.39l3.85,-3.01l4.34,-2.56l4.78,-2l5.16,-1.35l5.49,-0.6l5.77,0.24l5.99,1.15l6.14,2.12l6.21,3.13l6.2,4.16l6.08,5.17l5.88,6.15l5.55,7.06l5.12,7.89l4.58,8.62l3.92,9.25l3.13,9.74l2.22,10.08l1.2,10.25l0.08,10.25l-1.14,10.05l-2.45,9.65l-3.82,9.05l-5.25,8.24l-6.7,7.25" style="fill:none;fill-rule:nonzero;stroke:#6c6c6c;stroke-opacity:0.5;stroke-width:18px;stroke-linecap:round;stroke-miterlimit:4;" /><path d="M256.224,243.33l1.11,-0.73l1.2,-0.63l1.28,-0.53l1.34,-0.42l1.39,-0.31l1.43,-0.19l1.44,-0.06l1.45,0.06l1.43,0.19l1.41,0.32l1.37,0.46l1.32,0.6l1.26,0.74l1.18,0.87l1.09,1.01l0.99,1.13l0.88,1.25l0.75,1.36l0.62,1.45l0.48,1.54l0.32,1.61l0.16,1.68l-0.02,1.74l-0.2,1.78l-0.39,1.8l-0.59,1.81l-0.8,1.79l-1,1.74l-1.21,1.68l-1.42,1.58l-1.63,1.45l-1.82,1.3l-2.02,1.12l-2.18,0.91l-2.32,0.67l-2.44,0.42l-2.53,0.13l-2.59,-0.18l-2.62,-0.51l-2.6,-0.86l-2.55,-1.22l-2.46,-1.58l-2.32,-1.94l-2.15,-2.29l-1.94,-2.63l-1.68,-2.95l-1.39,-3.24l-1.04,-3.5l-0.66,-3.72l-0.25,-3.89l0.2,-4.01l0.68,-4.08l1.19,-4.07l1.72,-4.02l2.26,-3.88l2.8,-3.67l3.34,-3.39l3.85,-3.01l4.34,-2.56l4.78,-2l5.16,-1.35l5.49,-0.6l5.77,0.24l5.99,1.15l6.14,2.12l6.21,3.13l6.2,4.16l6.08,5.17l5.88,6.15l5.55,7.06l5.12,7.89l4.58,8.62l3.92,9.25l3.13,9.74l2.22,10.08l1.2,10.25l0.08,10.25l-1.14,10.05l-2.45,9.65l-3.82,9.05l-5.25,8.24l-6.7,7.25" style="fill:none;fill-rule:nonzero;stroke:#fff2d7;stroke-opacity:0.22;stroke-width:3px;stroke-linecap:round;stroke-miterlimit:4;" /></g><g><ellipse cx="262.108" cy="260.131" rx="31.244" ry="30.131" style="fill:#fff2d7;fill-opacity:0.12;" /><ellipse cx="262.108" cy="260.131" rx="26.205" ry="25.271" style="fill:#fff2d7;fill-opacity:0.16;" /><ellipse cx="262.108" cy="260.131" rx="22.173" ry="21.383" style="fill:#fff2d7;fill-opacity:0.22;" /><ellipse cx="262.108" cy="260.131" rx="18.142" ry="17.495" style="fill:#fff2d7;fill-opacity:0.3;" /><ellipse cx="262.108" cy="260.131" rx="14.11" ry="13.607" style="fill:#ffe2a6;fill-opacity:0.34;" /><ellipse cx="262.108" cy="260.131" rx="8.063" ry="7.776" style="fill:#fff8ea;fill-opacity:0.4;" /></g></g></svg>