<svg xmlns="http://www.w3.org/2000/svg" width="512" height="512" viewBox="0 0 512 512" version="1.1" xml:space="preserve" style="fill-rule:evenodd;clip-rule:evenodd;stroke-linejoin:round;stroke-miterlimit:2;"><g transform="matrix(0.91464078 0 0 0.91464078 21.85196117 21.85196117)"><rect fill="#000" x="0" y="0" width="512" height="512" style="stroke:#929497;stroke-width:3px;" /><path d="M180.141,433.014l-1.381,-0.598l153.196,-353.651l1.381,0.598l-153.196,353.651Z" style="fill:#fff;fill-opacity:0.3;stroke:#4b4b4b;stroke-width:1px;" /><path d="M246,256l20,0l24,-216l-68,0l24,216Z" style="fill:#8e8e8e;fill-rule:nonzero;" /><path d="M266,256l-20,0l-24,216l68,0l-24,-216Z" style="fill:#8d8d8d;fill-rule:nonzero;" /><circle cx="256" cy="256" r="40" style="fill:#e7e7e7;stroke:#cbcbcb;stroke-opacity:0.8;stroke-width:4px;stroke-linejoin:miter;stroke-miterlimit:4;" /><path d="M256,116c67.539,11.744 117.014,71.455 116,140" style="fill:none;fill-rule:nonzero;stroke:#dedede;stroke-opacity:0.35;stroke-width:6px;stroke-linejoin:miter;stroke-miterlimit:4;stroke-dasharray:12,16;" /><path d="M256,396c-67.539,-11.744 -117.014,-71.455 -116,-140" style="fill:none;fill-rule:nonzero;stroke:#dfdfdf;stroke-opacity:0.35;stroke-width:6px;stroke-linejoin:miter;stroke-miterlimit:4;stroke-dasharray:12,16;" /></g></svg>