<svg xmlns="http://www.w3.org/2000/svg" width="512" height="512" viewBox="0 0 512 512" version="1.1" xml:space="preserve" style="fill-rule:evenodd;clip-rule:evenodd;stroke-linejoin:round;stroke-miterlimit:2;"><g transform="matrix(0.91464078 0 0 0.91464078 21.85196117 21.85196117)"><rect fill="#000" x="0" y="0" width="512" height="512" style="stroke:#939598;stroke-width:3px;" /><path d="M237.544,386.42c-8.2,-1.059 -16.287,-2.836 -24.169,-5.315" style="fill:none;fill-rule:nonzero;stroke:#6ca6ff;stroke-opacity:0.15;stroke-width:12.03px;stroke-linecap:round;stroke-linejoin:miter;stroke-miterlimit:4;" /><path d="M178.276,364.558c-6.808,-4.449 -13.218,-9.483 -19.155,-15.043" style="fill:none;fill-rule:nonzero;stroke:#6ca6ff;stroke-opacity:0.15;stroke-width:12.03px;stroke-linecap:round;stroke-linejoin:miter;stroke-miterlimit:4;" /><path d="M132.746,315.92c-4.548,-8.135 -8.279,-16.699 -11.131,-25.573" style="fill:none;fill-rule:nonzero;stroke:#6ca6ff;stroke-opacity:0.15;stroke-width:12.03px;stroke-linecap:round;stroke-linejoin:miter;stroke-miterlimit:4;" /><path d="M115.297,259.059c-0.806,-9.351 -0.67,-18.758 0.401,-28.08" style="fill:none;fill-rule:nonzero;stroke:#6ca6ff;stroke-opacity:0.15;stroke-width:12.03px;stroke-linecap:round;stroke-linejoin:miter;stroke-miterlimit:4;" /><path d="M122.417,201.495c2.263,-6.578 5.01,-12.98 8.224,-19.154" style="fill:none;fill-rule:nonzero;stroke:#6ca6ff;stroke-opacity:0.15;stroke-width:12.03px;stroke-linecap:round;stroke-linejoin:miter;stroke-miterlimit:4;" /><path d="M155.511,148.244c6.266,-6.317 13.113,-12.026 20.458,-17.048" style="fill:none;fill-rule:nonzero;stroke:#6ca6ff;stroke-opacity:0.15;stroke-width:12.03px;stroke-linecap:round;stroke-linejoin:miter;stroke-miterlimit:4;" /><path d="M210.066,114.148c6.294,-2.126 12.724,-3.799 19.254,-5.014" style="fill:none;fill-rule:nonzero;stroke:#6ca6ff;stroke-opacity:0.15;stroke-width:12.03px;stroke-linecap:round;stroke-linejoin:miter;stroke-miterlimit:4;" /><path d="M263.718,107.028c7.357,0.429 14.665,1.436 21.862,3.008" style="fill:none;fill-rule:nonzero;stroke:#6ca6ff;stroke-opacity:0.15;stroke-width:12.03px;stroke-linecap:round;stroke-linejoin:miter;stroke-miterlimit:4;" /><circle cx="250.043" cy="254.939" r="58.598" style="fill:#9bbceb;fill-opacity:0.57;stroke:#6fa0e6;stroke-opacity:0.6;stroke-width:7.82px;stroke-linejoin:miter;stroke-miterlimit:4;" /><circle cx="267.625" cy="247.125" r="68.366" style="fill:#0b0b0f;fill-opacity:0.91;" /><circle cx="498.861" cy="461.733" r="6.017" style="fill:#bfd8ff;fill-opacity:0.55;" /><circle cx="13.139" cy="75.98" r="6.017" style="fill:#bfd8ff;fill-opacity:0.55;" /><circle cx="487.853" cy="50.267" r="6.017" style="fill:#bfd8ff;fill-opacity:0.55;" /></g></svg>