<svg xmlns="http://www.w3.org/2000/svg" width="512" height="512" viewBox="0 0 512 512" version="1.1" xml:space="preserve" style="fill-rule:evenodd;clip-rule:evenodd;stroke-linejoin:round;stroke-miterlimit:2;"><g transform="matrix(0.91464078 0 0 0.91464078 21.85196117 21.85196117)"><rect fill="#000" x="0" y="0" width="512" height="512" style="stroke:#949698;stroke-width:3px;" /><circle cx="256" cy="256" r="160.007" style="fill:none;stroke:#cbcbcb;stroke-opacity:0.35;stroke-width:12.8px;stroke-linejoin:miter;stroke-miterlimit:4;stroke-dasharray:27.73,23.47;" /><circle cx="256" cy="256" r="106.671" style="fill:none;stroke:#cbcbcb;stroke-opacity:0.7;stroke-width:12.8px;stroke-linejoin:miter;stroke-miterlimit:4;stroke-dasharray:27.73,23.47;" /><path d="M375.472,256l-64.003,0" style="fill:none;fill-rule:nonzero;stroke:#d9d9d9;stroke-opacity:0.8;stroke-width:10.67px;stroke-linecap:round;stroke-linejoin:miter;stroke-miterlimit:4;stroke-dasharray:19.2,17.07;" /><path d="M311.469,256l12.801,12.801l-0,-25.602l-12.801,12.801Z" style="fill:#d9d9d9;fill-opacity:0.85;fill-rule:nonzero;" /><path d="M256,375.472l-0,-64.003" style="fill:none;fill-rule:nonzero;stroke:#d9d9d9;stroke-opacity:0.8;stroke-width:10.67px;stroke-linecap:round;stroke-linejoin:miter;stroke-miterlimit:4;stroke-dasharray:19.2,17.07;" /><path d="M256,311.469l-12.801,12.801l25.602,-0l-12.801,-12.801Z" style="fill:#d9d9d9;fill-opacity:0.85;fill-rule:nonzero;" /><path d="M136.528,256l64.003,0" style="fill:none;fill-rule:nonzero;stroke:#d9d9d9;stroke-opacity:0.8;stroke-width:10.67px;stroke-linecap:round;stroke-linejoin:miter;stroke-miterlimit:4;stroke-dasharray:19.2,17.07;" /><path d="M200.531,256l-12.801,-12.801l0,25.602l12.801,-12.801Z" style="fill:#d9d9d9;fill-opacity:0.85;fill-rule:nonzero;" /><path d="M256,136.528l-0,64.003" style="fill:none;fill-rule:nonzero;stroke:#d9d9d9;stroke-opacity:0.8;stroke-width:10.67px;stroke-linecap:round;stroke-linejoin:miter;stroke-miterlimit:4;stroke-dasharray:19.2,17.07;" /><path d="M256,200.531l12.801,-12.801l-25.602,0l12.801,12.801Z" style="fill:#d9d9d9;fill-opacity:0.85;fill-rule:nonzero;" /></g></svg>