<svg xmlns="http://www.w3.org/2000/svg" width="512" height="512" viewBox="0 0 512 512" version="1.1" xml:space="preserve" style="fill-rule:evenodd;clip-rule:evenodd;stroke-linejoin:round;stroke-miterlimit:2;"><g transform="matrix(0.91464078 0 0 0.91464078 21.85196117 21.85196117)"><rect fill="#000" x="0" y="0" width="512" height="512" style="stroke:#949698;stroke-width:3px;" /><circle cx="57.6" cy="261.1" r="1.56" style="fill:#f0f0f0;fill-opacity:0.85;" /><circle cx="294.2" cy="298.9" r="0.66" style="fill:#f0f0f0;fill-opacity:0.85;" /><circle cx="379" cy="343.8" r="1.71" style="fill:#f0f0f0;fill-opacity:0.85;" /><circle cx="228.4" cy="221.9" r="0.64" style="fill:#f0f0f0;fill-opacity:0.85;" /><circle cx="392.6" cy="360" r="1.8" style="fill:#f0f0f0;fill-opacity:0.85;" /><circle cx="278.7" cy="261.7" r="1.25" style="fill:#f0f0f0;fill-opacity:0.85;" /><circle cx="25.6" cy="297.8" r="0.77" style="fill:#f0f0f0;fill-opacity:0.85;" /><circle cx="153.4" cy="355.7" r="1.03" style="fill:#f0f0f0;fill-opacity:0.85;" /><circle cx="124.4" cy="379.2" r="1.96" style="fill:#f0f0f0;fill-opacity:0.85;" /><circle cx="300.9" cy="299.8" r="0.86" style="fill:#f0f0f0;fill-opacity:0.85;" /><circle cx="185.5" cy="302.1" r="0.93" style="fill:#f0f0f0;fill-opacity:0.85;" /><circle cx="203.1" cy="314.2" r="0.68" style="fill:#f0f0f0;fill-opacity:0.85;" /><circle cx="180.2" cy="31.9" r="1.19" style="fill:#f0f0f0;fill-opacity:0.85;" /><circle cx="416.5" cy="295.7" r="1.61" style="fill:#f0f0f0;fill-opacity:0.85;" /><circle cx="384.8" cy="342.6" r="1.02" style="fill:#f0f0f0;fill-opacity:0.85;" /><circle cx="68.7" cy="114.8" r="1.08" style="fill:#f0f0f0;fill-opacity:0.85;" /><circle cx="281.3" cy="371.2" r="2.15" style="fill:#f0f0f0;fill-opacity:0.85;" /><circle cx="306.5" cy="213.8" r="1.53" style="fill:#f0f0f0;fill-opacity:0.85;" /><circle cx="276.6" cy="368.4" r="1.5" style="fill:#f0f0f0;fill-opacity:0.85;" /><circle cx="288.8" cy="244.2" r="1.91" style="fill:#f0f0f0;fill-opacity:0.85;" /><circle cx="265.2" cy="390" r="1.83" style="fill:#f0f0f0;fill-opacity:0.85;" /><circle cx="400" cy="161.5" r="1.36" style="fill:#f0f0f0;fill-opacity:0.85;" /><circle cx="330.3" cy="391.1" r="2.02" style="fill:#f0f0f0;fill-opacity:0.85;" /><circle cx="191.3" cy="110.7" r="1.11" style="fill:#f0f0f0;fill-opacity:0.85;" /><circle cx="224" cy="254.2" r="1.79" style="fill:#f0f0f0;fill-opacity:0.85;" /><circle cx="155.2" cy="298.8" r="1.62" style="fill:#f0f0f0;fill-opacity:0.85;" /><circle cx="164.8" cy="221.4" r="2.02" style="fill:#f0f0f0;fill-opacity:0.85;" /><circle cx="279.9" cy="189.4" r="0.91" style="fill:#f0f0f0;fill-opacity:0.85;" /><circle cx="361.8" cy="316.4" r="2.09" style="fill:#f0f0f0;fill-opacity:0.85;" /><circle cx="481.7" cy="242.7" r="1.47" style="fill:#f0f0f0;fill-opacity:0.85;" /><circle cx="236" cy="190.9" r="1.24" style="fill:#f0f0f0;fill-opacity:0.85;" /><circle cx="366.8" cy="361.1" r="1.29" style="fill:#f0f0f0;fill-opacity:0.85;" /><circle cx="376.6" cy="120.8" r="1.16" style="fill:#f0f0f0;fill-opacity:0.85;" /><circle cx="219.2" cy="335.2" r="1.26" style="fill:#f0f0f0;fill-opacity:0.85;" /><circle cx="306.5" cy="355.2" r="1.88" style="fill:#f0f0f0;fill-opacity:0.85;" /><circle cx="416.9" cy="244.1" r="0.69" style="fill:#f0f0f0;fill-opacity:0.85;" /><circle cx="263.1" cy="368.3" r="1.96" style="fill:#f0f0f0;fill-opacity:0.85;" /><circle cx="153.5" cy="361.1" r="0.7" style="fill:#f0f0f0;fill-opacity:0.85;" /><circle cx="287.4" cy="264.4" r="1.97" style="fill:#f0f0f0;fill-opacity:0.85;" /><circle cx="371.4" cy="472.5" r="1.89" style="fill:#f0f0f0;fill-opacity:0.85;" /><circle cx="163.8" cy="347.7" r="0.79" style="fill:#f0f0f0;fill-opacity:0.85;" /><circle cx="337.5" cy="353.1" r="2.13" style="fill:#f0f0f0;fill-opacity:0.85;" /><circle cx="424.7" cy="422.1" r="1.89" style="fill:#f0f0f0;fill-opacity:0.85;" /><circle cx="162.4" cy="137.2" r="0.68" style="fill:#f0f0f0;fill-opacity:0.85;" /><circle cx="270.4" cy="228.9" r="1.47" style="fill:#f0f0f0;fill-opacity:0.85;" /><circle cx="358.1" cy="402.4" r="0.72" style="fill:#f0f0f0;fill-opacity:0.85;" /><circle cx="278.7" cy="185.4" r="1.67" style="fill:#f0f0f0;fill-opacity:0.85;" /><circle cx="448.6" cy="414.5" r="1.71" style="fill:#f0f0f0;fill-opacity:0.85;" /><circle cx="339.6" cy="153.1" r="0.93" style="fill:#f0f0f0;fill-opacity:0.85;" /><circle cx="145.5" cy="312" r="0.98" style="fill:#f0f0f0;fill-opacity:0.85;" /><circle cx="378.3" cy="385.5" r="1.79" style="fill:#f0f0f0;fill-opacity:0.85;" /><circle cx="57.3" cy="287" r="1.5" style="fill:#f0f0f0;fill-opacity:0.85;" /><circle cx="109.2" cy="92.5" r="0.94" style="fill:#f0f0f0;fill-opacity:0.85;" /><circle cx="255.7" cy="256" r="1.66" style="fill:#f0f0f0;fill-opacity:0.85;" /><circle cx="155.3" cy="87.2" r="1.09" style="fill:#f0f0f0;fill-opacity:0.85;" /><circle cx="150.8" cy="149.4" r="0.92" style="fill:#f0f0f0;fill-opacity:0.85;" /><circle cx="314" cy="217.9" r="0.9" style="fill:#f0f0f0;fill-opacity:0.85;" /><circle cx="276.6" cy="424.4" r="0.6" style="fill:#f0f0f0;fill-opacity:0.85;" /><circle cx="441.7" cy="156.6" r="0.73" style="fill:#f0f0f0;fill-opacity:0.85;" /><circle cx="445.7" cy="95.4" r="1.45" style="fill:#f0f0f0;fill-opacity:0.85;" /><circle cx="319.9" cy="310.5" r="1.07" style="fill:#f0f0f0;fill-opacity:0.85;" /><circle cx="351.7" cy="388.5" r="2" style="fill:#f0f0f0;fill-opacity:0.85;" /><circle cx="433.7" cy="165.4" r="2.03" style="fill:#f0f0f0;fill-opacity:0.85;" /><circle cx="495.6" cy="188.4" r="1.23" style="fill:#f0f0f0;fill-opacity:0.85;" /><circle cx="200.8" cy="379.2" r="1.19" style="fill:#f0f0f0;fill-opacity:0.85;" /><circle cx="384.1" cy="173.7" r="1.45" style="fill:#f0f0f0;fill-opacity:0.85;" /><circle cx="246.8" cy="329.6" r="0.64" style="fill:#f0f0f0;fill-opacity:0.85;" /><circle cx="269.8" cy="244.1" r="1.45" style="fill:#f0f0f0;fill-opacity:0.85;" /><circle cx="184" cy="445.5" r="2.14" style="fill:#f0f0f0;fill-opacity:0.85;" /><circle cx="215.8" cy="85.4" r="0.88" style="fill:#f0f0f0;fill-opacity:0.85;" /><circle cx="408.9" cy="281.6" r="1.41" style="fill:#f0f0f0;fill-opacity:0.85;" /><circle cx="316" cy="207.3" r="2.05" style="fill:#f0f0f0;fill-opacity:0.85;" /><circle cx="445.7" cy="178.8" r="1.15" style="fill:#f0f0f0;fill-opacity:0.85;" /><circle cx="212.2" cy="22.9" r="0.99" style="fill:#f0f0f0;fill-opacity:0.85;" /><circle cx="84.7" cy="335.1" r="1.46" style="fill:#f0f0f0;fill-opacity:0.85;" /><circle cx="237.1" cy="86.2" r="1.02" style="fill:#f0f0f0;fill-opacity:0.85;" /><circle cx="483.6" cy="244.5" r="1.79" style="fill:#f0f0f0;fill-opacity:0.85;" /><circle cx="390.6" cy="393.6" r="2.09" style="fill:#f0f0f0;fill-opacity:0.85;" /><circle cx="325.5" cy="342.2" r="2.13" style="fill:#f0f0f0;fill-opacity:0.85;" /><circle cx="283.2" cy="52.6" r="2.16" style="fill:#f0f0f0;fill-opacity:0.85;" /><circle cx="297.9" cy="250.9" r="1.04" style="fill:#f0f0f0;fill-opacity:0.85;" /><circle cx="23.1" cy="262.1" r="1.65" style="fill:#f0f0f0;fill-opacity:0.85;" /><circle cx="134.6" cy="165.8" r="1.84" style="fill:#f0f0f0;fill-opacity:0.85;" /><circle cx="385.3" cy="281.8" r="1.55" style="fill:#f0f0f0;fill-opacity:0.85;" /><circle cx="149.6" cy="135.8" r="1.46" style="fill:#f0f0f0;fill-opacity:0.85;" /><circle cx="225.7" cy="329.8" r="1.3" style="fill:#f0f0f0;fill-opacity:0.85;" /><circle cx="320.6" cy="93.7" r="0.96" style="fill:#f0f0f0;fill-opacity:0.85;" /><circle cx="183.2" cy="305.3" r="1.32" style="fill:#f0f0f0;fill-opacity:0.85;" /><circle cx="52.3" cy="235.5" r="1.5" style="fill:#f0f0f0;fill-opacity:0.85;" /><circle cx="173.8" cy="120.9" r="0.83" style="fill:#f0f0f0;fill-opacity:0.85;" /><circle cx="46.6" cy="172.1" r="1.32" style="fill:#f0f0f0;fill-opacity:0.85;" /><circle cx="248.5" cy="288.9" r="0.72" style="fill:#f0f0f0;fill-opacity:0.85;" /><circle cx="328.3" cy="186.1" r="0.63" style="fill:#f0f0f0;fill-opacity:0.85;" /><circle cx="81.1" cy="84" r="1.54" style="fill:#f0f0f0;fill-opacity:0.85;" /><circle cx="188" cy="448.3" r="0.91" style="fill:#f0f0f0;fill-opacity:0.85;" /><circle cx="203.8" cy="328.8" r="2.12" style="fill:#f0f0f0;fill-opacity:0.85;" /><circle cx="278.9" cy="12.7" r="1.75" style="fill:#f0f0f0;fill-opacity:0.85;" /><circle cx="382.2" cy="84.5" r="0.61" style="fill:#f0f0f0;fill-opacity:0.85;" /><circle cx="122.6" cy="251.2" r="1.03" style="fill:#f0f0f0;fill-opacity:0.85;" /><circle cx="355.3" cy="46.3" r="0.86" style="fill:#f0f0f0;fill-opacity:0.85;" /><circle cx="90.3" cy="356.5" r="0.87" style="fill:#f0f0f0;fill-opacity:0.85;" /><circle cx="325.4" cy="303.4" r="1.31" style="fill:#f0f0f0;fill-opacity:0.85;" /><circle cx="135.8" cy="311.9" r="1.33" style="fill:#f0f0f0;fill-opacity:0.85;" /><circle cx="44.2" cy="311.6" r="1.82" style="fill:#f0f0f0;fill-opacity:0.85;" /><circle cx="337.6" cy="131.9" r="1.28" style="fill:#f0f0f0;fill-opacity:0.85;" /><circle cx="285.2" cy="51" r="1.09" style="fill:#f0f0f0;fill-opacity:0.85;" /><circle cx="69.9" cy="380.2" r="1.42" style="fill:#f0f0f0;fill-opacity:0.85;" /><circle cx="326.6" cy="156" r="1.18" style="fill:#f0f0f0;fill-opacity:0.85;" /><circle cx="218.4" cy="322.9" r="0.92" style="fill:#f0f0f0;fill-opacity:0.85;" /><circle cx="66.4" cy="224.8" r="1.93" style="fill:#f0f0f0;fill-opacity:0.85;" /><circle cx="52.7" cy="202.2" r="1.25" style="fill:#f0f0f0;fill-opacity:0.85;" /><circle cx="211.7" cy="147" r="0.75" style="fill:#f0f0f0;fill-opacity:0.85;" /><circle cx="441" cy="330.2" r="0.64" style="fill:#f0f0f0;fill-opacity:0.85;" /><circle cx="448.3" cy="302.7" r="2.09" style="fill:#f0f0f0;fill-opacity:0.85;" /><circle cx="204.6" cy="106.3" r="1.04" style="fill:#f0f0f0;fill-opacity:0.85;" /><circle cx="111.5" cy="364.9" r="1.68" style="fill:#f0f0f0;fill-opacity:0.85;" /><circle cx="378.6" cy="361.4" r="1.42" style="fill:#f0f0f0;fill-opacity:0.85;" /><path d="M166,256l60,-40l120,40l-120,40l-60,-40Z" style="fill:#b6b6b6;fill-rule:nonzero;stroke:#fff;stroke-width:8px;stroke-linejoin:miter;stroke-miterlimit:4;" /><path d="M166,256l-50,-10" style="fill:none;fill-rule:nonzero;stroke:#a2a2a2;stroke-opacity:0.9;stroke-width:16px;stroke-linecap:round;stroke-linejoin:miter;stroke-miterlimit:4;" /><path d="M166,256l-50,10" style="fill:none;fill-rule:nonzero;stroke:#dcdcdc;stroke-opacity:0.85;stroke-width:12px;stroke-linecap:round;stroke-linejoin:miter;stroke-miterlimit:4;" /></g></svg>