<svg xmlns="http://www.w3.org/2000/svg" width="512" height="512" viewBox="0 0 512 512" version="1.1" xml:space="preserve" style="fill-rule:evenodd;clip-rule:evenodd;stroke-linejoin:round;stroke-miterlimit:2;"><g transform="matrix(0.91464078 0 0 0.91464078 21.85196117 21.85196117)"><rect fill="#000" x="0" y="0" width="512" height="512" style="stroke:#939598;stroke-width:3px;" /><circle cx="95.829" cy="53.836" r="2.672" style="fill:#f5faff;fill-opacity:0.69;" /><circle cx="371.792" cy="136.25" r="4.87" style="fill:#6fb6ff;fill-opacity:0.69;" /><circle cx="193.727" cy="349.528" r="4.321" style="fill:#f5faff;fill-opacity:0.54;" /><circle cx="333.332" cy="280.35" r="1.723" style="fill:#f5faff;fill-opacity:0.81;" /><circle cx="233.935" cy="341.786" r="2.672" style="fill:#6fb6ff;fill-opacity:0.86;" /><circle cx="30.148" cy="154.481" r="4.196" style="fill:#f5faff;fill-opacity:0.53;" /><circle cx="256.412" cy="428.945" r="1.623" style="fill:#6fb6ff;fill-opacity:0.81;" /><circle cx="178.493" cy="226.905" r="1.523" style="fill:#fffaf0;fill-opacity:0.93;" /><circle cx="422.989" cy="332.545" r="1.648" style="fill:#fffaf0;fill-opacity:0.71;" /><circle cx="164.758" cy="343.784" r="3.796" style="fill:#6fb6ff;fill-opacity:0.6;" /><circle cx="280.637" cy="190.443" r="2.847" style="fill:#6fb6ff;fill-opacity:0.62;" /><circle cx="63.363" cy="274.606" r="5.294" style="fill:#6fb6ff;fill-opacity:0.95;" /><circle cx="276.142" cy="292.087" r="3.272" style="fill:#fffaf0;fill-opacity:0.9;" /><circle cx="262.905" cy="213.419" r="2.672" style="fill:#f5faff;fill-opacity:0.82;" /><circle cx="397.265" cy="471.9" r="4.62" style="fill:#fffaf0;fill-opacity:0.58;" /><circle cx="108.316" cy="413.461" r="1.673" style="fill:#fffaf0;fill-opacity:0.71;" /><circle cx="406.006" cy="294.085" r="2.023" style="fill:#fffaf0;fill-opacity:0.68;" /><circle cx="204.466" cy="471.9" r="4.57" style="fill:#6fb6ff;fill-opacity:0.78;" /><circle cx="283.883" cy="335.542" r="2.722" style="fill:#fffaf0;fill-opacity:0.66;" /><circle cx="55.621" cy="223.159" r="2.198" style="fill:#6fb6ff;fill-opacity:0.74;" /><circle cx="236.433" cy="70.818" r="3.946" style="fill:#f5faff;fill-opacity:0.65;" /><circle cx="131.542" cy="481.39" r="2.098" style="fill:#fffaf0;fill-opacity:0.56;" /><circle cx="182.239" cy="78.06" r="1.623" style="fill:#6fb6ff;fill-opacity:0.55;" /><circle cx="411.75" cy="278.352" r="4.92" style="fill:#fffaf0;fill-opacity:0.83;" /><circle cx="71.605" cy="409.215" r="2.747" style="fill:#6fb6ff;fill-opacity:0.65;" /><circle cx="200.97" cy="342.035" r="2.173" style="fill:#6fb6ff;fill-opacity:0.5;" /><circle cx="465.444" cy="383.242" r="4.096" style="fill:#6fb6ff;fill-opacity:0.82;" /><circle cx="62.114" cy="431.942" r="2.298" style="fill:#f5faff;fill-opacity:0.67;" /><circle cx="144.778" cy="345.032" r="4.196" style="fill:#fffaf0;fill-opacity:0.61;" /><circle cx="208.961" cy="250.381" r="2.248" style="fill:#f5faff;fill-opacity:0.81;" /><circle cx="41.136" cy="129.756" r="4.945" style="fill:#f5faff;fill-opacity:0.81;" /><circle cx="365.299" cy="52.337" r="2.223" style="fill:#f5faff;fill-opacity:0.58;" /><circle cx="203.717" cy="238.893" r="4.071" style="fill:#f5faff;fill-opacity:0.7;" /><circle cx="320.096" cy="416.458" r="5.22" style="fill:#f5faff;fill-opacity:0.76;" /><circle cx="291.126" cy="251.13" r="2.248" style="fill:#6fb6ff;fill-opacity:0.7;" /><circle cx="328.087" cy="114.772" r="4.171" style="fill:#fffaf0;fill-opacity:0.89;" /><circle cx="479.68" cy="123.263" r="2.897" style="fill:#f5faff;fill-opacity:0.71;" /><circle cx="59.118" cy="190.693" r="5.17" style="fill:#6fb6ff;fill-opacity:0.57;" /><circle cx="480.928" cy="254.127" r="5.12" style="fill:#f5faff;fill-opacity:0.63;" /><circle cx="361.053" cy="444.678" r="3.996" style="fill:#fffaf0;fill-opacity:0.72;" /><circle cx="399.263" cy="135.5" r="3.172" style="fill:#6fb6ff;fill-opacity:0.72;" /><circle cx="369.045" cy="291.588" r="3.621" style="fill:#6fb6ff;fill-opacity:0.73;" /><circle cx="99.825" cy="253.378" r="1.623" style="fill:#6fb6ff;fill-opacity:0.74;" /><circle cx="143.03" cy="332.296" r="2.048" style="fill:#fffaf0;fill-opacity:0.55;" /><circle cx="43.134" cy="38.352" r="2.073" style="fill:#6fb6ff;fill-opacity:0.77;" /><circle cx="199.971" cy="31.609" r="3.097" style="fill:#fffaf0;fill-opacity:0.8;" /><circle cx="238.681" cy="460.662" r="5.494" style="fill:#fffaf0;fill-opacity:0.52;" /><circle cx="126.547" cy="272.857" r="4.246" style="fill:#f5faff;fill-opacity:0.87;" /><circle cx="171.75" cy="167.967" r="4.845" style="fill:#f5faff;fill-opacity:0.72;" /><circle cx="200.72" cy="278.851" r="3.596" style="fill:#fffaf0;fill-opacity:0.86;" /><circle cx="136.537" cy="136.499" r="4.62" style="fill:#f5faff;fill-opacity:0.54;" /><circle cx="97.827" cy="169.715" r="1.823" style="fill:#f5faff;fill-opacity:0.54;" /><circle cx="263.655" cy="303.326" r="2.747" style="fill:#6fb6ff;fill-opacity:0.69;" /><circle cx="333.831" cy="92.795" r="4.77" style="fill:#6fb6ff;fill-opacity:0.66;" /></g></svg>