<svg xmlns="http://www.w3.org/2000/svg" width="512" height="512" viewBox="0 0 512 512" version="1.1" xml:space="preserve" style="fill-rule:evenodd;clip-rule:evenodd;stroke-linejoin:round;stroke-miterlimit:2;"><defs><linearGradient id="_Linear1" x1="0" y1="0" x2="1" y2="0" gradientUnits="userSpaceOnUse" gradientTransform="matrix(127.2,127.2,-127.2,127.2,192.4,192.4)"><stop offset="0" style="stop-color:#e9ffe9;stop-opacity:1" /><stop offset="0.5" style="stop-color:#c8fff0;stop-opacity:1" /><stop offset="1" style="stop-color:#63ffd3;stop-opacity:1" /></linearGradient></defs><g transform="matrix(0.91464078 0 0 0.91464078 21.85196117 21.85196117)"><rect fill="#000" x="0" y="0" width="512" height="512" style="stroke:#939598;stroke-width:3px;" /><rect x="192.4" y="192.4" width="127.2" height="127.2" style="fill:url(#_Linear1);stroke:#63ffd3;stroke-opacity:0.95;stroke-width:8px;stroke-linejoin:miter;stroke-miterlimit:4;" /><path d="M406,256.6l17.3,14.4l-22.1,22.7" style="fill:none;fill-rule:nonzero;stroke:#e9ffe9;stroke-opacity:0.85;stroke-width:10px;stroke-linecap:round;stroke-linejoin:miter;stroke-miterlimit:4;" /><path d="M376.6,345.2l1.7,26l-24.5,-1.4" style="fill:none;fill-rule:nonzero;stroke:#e9ffe9;stroke-opacity:0.85;stroke-width:10px;stroke-linecap:round;stroke-linejoin:miter;stroke-miterlimit:4;" /><path d="M311.7,395.3l-16.8,24.1l-18,-14.9" style="fill:none;fill-rule:nonzero;stroke:#e9ffe9;stroke-opacity:0.85;stroke-width:10px;stroke-linecap:round;stroke-linejoin:miter;stroke-miterlimit:4;" /><path d="M201.9,395.9l-24.1,8.8l-4.1,-23.3" style="fill:none;fill-rule:nonzero;stroke:#e9ffe9;stroke-opacity:0.85;stroke-width:10px;stroke-linecap:round;stroke-linejoin:miter;stroke-miterlimit:4;" /><path d="M133.6,342.7l-27.1,-10.1l12.9,-14.7" style="fill:none;fill-rule:nonzero;stroke:#e9ffe9;stroke-opacity:0.85;stroke-width:10px;stroke-linecap:round;stroke-linejoin:miter;stroke-miterlimit:4;" /><path d="M106.2,248l-18.1,2.9l21.3,-26.8" style="fill:none;fill-rule:nonzero;stroke:#e9ffe9;stroke-opacity:0.85;stroke-width:10px;stroke-linecap:round;stroke-linejoin:miter;stroke-miterlimit:4;" /><path d="M134,168.7l-6,-21.5l23.9,0.8" style="fill:none;fill-rule:nonzero;stroke:#e9ffe9;stroke-opacity:0.85;stroke-width:10px;stroke-linecap:round;stroke-linejoin:miter;stroke-miterlimit:4;" /><path d="M205.3,114.8l-7,-16.6l32.1,10" style="fill:none;fill-rule:nonzero;stroke:#e9ffe9;stroke-opacity:0.85;stroke-width:10px;stroke-linecap:round;stroke-linejoin:miter;stroke-miterlimit:4;" /><path d="M304.3,114l13.2,-14.3l21.9,31.6" style="fill:none;fill-rule:nonzero;stroke:#e9ffe9;stroke-opacity:0.85;stroke-width:10px;stroke-linecap:round;stroke-linejoin:miter;stroke-miterlimit:4;" /><path d="M377.3,167.7l21.6,-0.1l-3.8,32.2" style="fill:none;fill-rule:nonzero;stroke:#e9ffe9;stroke-opacity:0.85;stroke-width:10px;stroke-linecap:round;stroke-linejoin:miter;stroke-miterlimit:4;" /><path d="M354.7,291.9l39.9,44.1l63.4,-6.5" style="fill:none;fill-rule:nonzero;stroke:#fff;stroke-opacity:0.95;stroke-width:12px;stroke-linecap:round;stroke-linejoin:miter;stroke-miterlimit:4;" /><path d="M220.1,354.7l-44.1,39.9l6.5,63.4" style="fill:none;fill-rule:nonzero;stroke:#fff;stroke-opacity:0.95;stroke-width:12px;stroke-linecap:round;stroke-linejoin:miter;stroke-miterlimit:4;" /><path d="M157.3,220.1l-39.9,-44.1l-63.4,6.5" style="fill:none;fill-rule:nonzero;stroke:#fff;stroke-opacity:0.95;stroke-width:12px;stroke-linecap:round;stroke-linejoin:miter;stroke-miterlimit:4;" /><path d="M291.9,157.3l44.1,-39.9l-6.5,-63.4" style="fill:none;fill-rule:nonzero;stroke:#fff;stroke-opacity:0.95;stroke-width:12px;stroke-linecap:round;stroke-linejoin:miter;stroke-miterlimit:4;" /></g></svg>